<?xml version="1.0" encoding="iso-8859-1"?>
<!-- Uploaded to: SVG Repo, www.svgrepo.com, Generator: SVG Repo Mixer Tools -->
<svg height="800px" width="800px" version="1.1" id="Layer_1" xmlns="http://www.w3.org/2000/svg" xmlns:xlink="http://www.w3.org/1999/xlink" 
	 viewBox="0 0 391.5 391.5" xml:space="preserve">
<path style="fill:#42210B;" d="M374.75,7.5c9.6,8,12.8,20,9.6,32l-103.2,336.8c-2.4,8-9.6,14.4-18.4,15.2c-0.8,0-1.6,0-2.4,0
	c-8,0-14.4-4-18.4-11.2l-44.8-79.2l-84,42.4c-7.2,3.2-15.2,3.2-21.6-1.6c-6.4-4-10.4-11.2-9.6-19.2l5.6-91.2l-68.8-29.6
	c-8-3.2-12.8-10.4-12.8-19.2c0-8,4-16,12-20l323.2-160C353.15-2.1,365.95-0.5,374.75,7.5z M369.15,34.7c1.6-5.6,0-11.2-4-15.2
	s-10.4-4.8-15.2-1.6l-323.2,160c-2.4,1.6-3.2,4-3.2,4.8s0.8,3.2,3.2,4.8l73.6,32c3.2,1.6,4.8,4.8,4.8,8l-5.6,96.8
	c0,2.4,1.6,4,2.4,4.8c0.8,0.8,3.2,1.6,5.6,0l44.8-23.2l45.6-23.2c0.8-0.8,2.4-0.8,3.2-0.8c3.2,0,5.6,1.6,7.2,4l48,86.4
	c1.6,2.4,4,3.2,5.6,2.4s4-0.8,4.8-4l90.4-296.8L369.15,34.7z"/>
<path style="fill:#FFF8EF;" d="M365.15,19.5c-4-4-10.4-4.8-15.2-1.6l-323.2,160c-2.4,1.6-3.2,4-3.2,4.8s0,3.2,3.2,4.8l73.6,32
	c3.2,1.6,4.8,4.8,4.8,8l-5.6,96.8c0,2.4,1.6,4,2.4,4.8c0.8,0.8,2.4,1.6,5.6,0l44.8-23.2l45.6-23.2c0.8-0.8,2.4-0.8,4-0.8
	c2.4,0,5.6,1.6,7.2,4l48,86.4c1.6,3.2,4,3.2,5.6,2.4c0.8,0,4-0.8,4.8-4l89.6-296.8l12-39.2C370.75,29.1,369.15,23.5,365.15,19.5z
	 M338.75,70.7l-120,120.8l-68,104.8c-0.8,0.8-1.6,2.4-3.2,2.4c-0.8,0.8-2.4,0.8-4,0.8c-0.8,0-1.6,0-2.4,0c-3.2-1.6-5.6-4.8-5.6-8
	l6.4-109.6c0-2.4,1.6-4.8,4-6.4l182.4-116.8c3.2-2.4,8-1.6,10.4,1.6c1.6,2.4,2.4,5.6,1.6,8C339.55,69.1,339.55,70.7,338.75,70.7z"/>
<path style="fill:#42210B;" d="M339.55,60.3c1.6,2.4,2.4,5.6,1.6,8c-0.8,0.8-0.8,1.6-1.6,2.4l-120,120.8l-68,104.8
	c-0.8,1.6-1.6,2.4-3.2,2.4c-0.8,0.8-2.4,0.8-4,0.8c-0.8,0-1.6,0-2.4,0c-3.2-0.8-5.6-4.8-5.6-8l6.4-109.6c0-2.4,1.6-4.8,4-6.4
	l182.4-116.8C332.35,56.3,336.35,57.1,339.55,60.3z M206.75,181.1l68.8-69.6l-117.6,75.2l-4,75.2l52-80
	C205.95,181.9,206.75,181.1,206.75,181.1z"/>
<g>
	<path style="fill:#D9CDC1;" d="M275.55,111.5l-68.8,69.6c0,0.8-0.8,0.8-0.8,1.6l-52,80l4-75.2L275.55,111.5z"/>
	<path style="fill:#D9CDC1;" d="M265.95,371.5l91.2-297.6l12-39.2c1.6-5.6,0-11.2-4-15.2s-10.4-4.8-15.2-1.6l-240,118.4l0,0
		l247.2-108l-87.2,291.2c-4,14.4-20.8,20-32.8,11.2l-6.4-4.8l25.6,46.4c1.6,3.2,4,3.2,5.6,2.4
		C262.75,375.5,265.15,374.7,265.95,371.5z"/>
</g>
</svg>