<?xml version="1.0" standalone="no"?>
<!DOCTYPE svg PUBLIC "-//W3C//DTD SVG 20010904//EN"
 "http://www.w3.org/TR/2001/REC-SVG-20010904/DTD/svg10.dtd">
<svg version="1.0" xmlns="http://www.w3.org/2000/svg"
 width="960.000000pt" height="960.000000pt" viewBox="0 0 960.000000 960.000000"
 preserveAspectRatio="xMidYMid meet">
<metadata>
Created by potrace 1.14, written by Peter Selinger 2001-2017
</metadata>
<g transform="translate(0.000000,960.000000) scale(0.100000,-0.100000)"
fill="#000000" stroke="none">
<path d="M683 9510 c-264 -111 -486 -333 -595 -595 l-37 -90 -1 -297 c0 -258
2 -298 15 -298 8 0 15 5 15 10 0 6 7 10 15 10 8 0 15 7 15 15 0 20 10 19 26
-2 12 -17 14 -17 43 5 17 12 45 25 63 28 68 11 78 15 78 29 0 23 16 26 64 14
48 -12 101 -5 91 11 -8 13 17 13 52 -1 19 -7 29 -7 31 0 4 13 162 15 162 2 0
-8 88 4 98 14 3 3 14 -3 24 -12 12 -11 36 -17 68 -17 35 0 50 -4 50 -13 0 -19
35 -16 110 11 37 14 99 28 139 32 63 6 71 5 71 -11 0 -10 5 -15 13 -12 45 19
67 33 67 43 0 13 57 27 71 18 5 -3 9 -14 9 -25 0 -16 7 -19 40 -19 25 0 40 5
40 13 0 20 50 37 107 37 50 0 53 1 53 25 0 24 3 25 59 25 102 0 181 12 181 26
0 8 9 14 19 14 11 0 23 5 26 10 9 15 35 12 35 -5 0 -21 220 -16 243 5 36 33
47 40 62 40 8 0 15 5 15 10 0 6 18 10 40 10 39 0 40 -1 40 -35 0 -33 2 -35 33
-35 22 0 28 3 18 9 -11 7 -9 10 8 16 12 3 21 15 21 26 0 15 7 19 39 19 22 0
41 -5 43 -12 3 -8 13 -8 34 -3 l29 9 -32 4 c-30 3 -33 6 -33 38 0 19 -5 34
-12 34 -6 0 -8 3 -4 7 4 4 27 6 51 4 42 -2 45 -1 45 22 0 22 6 26 40 32 23 4
37 11 34 17 -4 6 -22 8 -40 5 -29 -5 -34 -3 -34 13 0 16 -7 19 -47 17 -52 -2
-113 20 -113 40 0 9 17 11 62 7 64 -5 118 2 118 15 0 5 -22 6 -50 3 -31 -3
-50 -1 -50 6 0 6 -15 8 -39 5 -23 -3 -41 -1 -45 6 -4 6 -23 11 -42 11 -26 0
-34 4 -34 18 0 16 -14 20 -110 31 -61 6 -115 9 -120 6 -6 -4 -10 3 -10 14 0
13 -7 21 -17 22 -15 0 -15 2 2 9 17 7 16 9 -10 11 -16 1 -55 1 -85 1 -30 0
-47 2 -37 4 9 3 17 10 17 15 0 5 -8 9 -17 9 -14 0 -15 2 -5 9 11 6 6 17 -20
45 -18 20 -41 36 -51 36 -27 0 -57 19 -57 35 0 8 9 15 20 15 11 0 20 -7 20
-15 0 -8 4 -15 9 -15 5 0 11 7 15 15 3 9 0 15 -9 15 -8 0 -15 4 -15 9 0 5 -9
11 -21 14 -12 3 -18 10 -15 16 4 5 2 12 -4 16 -6 4 -8 11 -5 16 4 5 1 9 -4 9
-6 0 -11 7 -11 15 0 8 -4 15 -10 15 -5 0 -10 -5 -10 -12 0 -9 -3 -9 -12 0 -18
18 -26 15 -30 -10 l-3 -23 -22 23 c-13 12 -29 22 -36 22 -7 0 -20 9 -29 19
-14 17 -15 20 -1 25 8 3 23 6 34 6 24 0 26 35 3 48 -9 5 -15 13 -15 18 1 5
-10 10 -24 12 -20 3 -25 -1 -25 -18 0 -18 -5 -21 -37 -18 -32 2 -39 7 -41 28
-3 20 -2 22 11 12 12 -10 16 -10 20 0 4 10 7 10 15 -1 15 -21 32 -3 32 35 0
19 5 34 10 34 6 0 10 -4 10 -10 0 -5 14 -10 30 -10 17 0 30 -4 30 -10 0 -5 9
-10 20 -10 22 0 27 15 8 24 -7 3 -4 4 7 3 13 -1 20 4 20 16 0 21 23 37 42 30
7 -3 13 2 13 11 0 9 7 19 15 22 24 10 17 18 -25 32 -30 9 -173 12 -562 12
l-523 -1 -92 -39z m997 -241 c0 -24 -23 -21 -28 4 -2 10 3 17 12 17 10 0 16
-9 16 -21z m160 -85 c0 -14 -3 -14 -15 -4 -8 7 -15 14 -15 16 0 2 7 4 15 4 8
0 15 -7 15 -16z m267 -240 c-3 -3 -12 -4 -19 -1 -8 3 -5 6 6 6 11 1 17 -2 13
-5z m136 -74 c-4 -16 -14 -20 -46 -20 -47 0 -46 4 8 23 22 8 41 15 42 16 0 0
-1 -8 -4 -19z m-403 -390 c0 -5 -2 -10 -4 -10 -3 0 -8 5 -11 10 -3 6 -1 10 4
10 6 0 11 -4 11 -10z"/>
<path d="M7910 9540 c0 -5 -7 -10 -15 -10 -21 0 -19 -9 7 -31 24 -22 73 -25
85 -6 5 8 9 2 13 -18 4 -26 10 -30 43 -33 30 -3 37 -7 37 -25 0 -15 13 -29 40
-45 22 -12 40 -18 40 -12 0 21 56 10 78 -15 12 -14 33 -25 46 -25 14 0 29 -7
33 -15 9 -15 53 -10 53 6 0 5 6 9 14 9 8 0 27 10 41 23 23 19 27 32 32 100 3
43 10 80 14 83 33 20 -17 24 -276 24 -183 0 -285 -4 -285 -10z"/>
<path d="M8480 9488 c0 -46 11 -42 28 10 10 29 9 32 -9 32 -16 0 -19 -7 -19
-42z"/>
<path d="M1844 9424 c1 -15 7 -29 14 -32 10 -3 13 4 10 24 -4 36 -25 43 -24 8z"/>
<path d="M1834 9323 c5 -9 0 -13 -14 -13 -19 0 -20 -1 -6 -16 14 -14 18 -14
31 -1 13 13 12 17 -2 29 -12 9 -15 9 -9 1z"/>
<path d="M2248 8913 c6 -2 18 -2 25 0 6 3 1 5 -13 5 -14 0 -19 -2 -12 -5z"/>
<path d="M2433 8873 c9 -2 23 -2 30 0 6 3 -1 5 -18 5 -16 0 -22 -2 -12 -5z"/>
<path d="M1122 8313 c2 -13 14 -19 41 -21 21 -2 37 1 37 7 0 6 9 11 21 11 11
0 17 5 14 10 -3 6 -31 10 -61 10 -47 0 -55 -3 -52 -17z"/>
<path d="M900 8310 c0 -5 4 -10 9 -10 6 0 13 5 16 10 3 6 -1 10 -9 10 -9 0
-16 -4 -16 -10z"/>
<path d="M1258 8313 c7 -3 16 -2 19 1 4 3 -2 6 -13 5 -11 0 -14 -3 -6 -6z"/>
<path d="M1000 8300 l-45 -7 40 -1 c22 -1 47 3 55 8 8 5 11 9 5 8 -5 0 -30 -4
-55 -8z"/>
<path d="M80 7855 c0 -11 11 -15 40 -15 29 0 40 4 40 15 0 11 -11 15 -40 15
-29 0 -40 -4 -40 -15z"/>
<path d="M63 7833 c-10 -4 -13 -92 -13 -398 l0 -393 40 0 c28 -1 40 3 40 14 0
8 7 14 15 14 28 0 16 30 -12 31 -16 0 -22 3 -15 6 6 2 10 8 7 13 -2 4 9 10 26
14 17 3 28 10 24 16 -3 5 -1 10 5 10 6 0 25 20 42 45 18 25 38 45 46 45 8 0
12 6 8 15 -3 8 2 19 12 24 9 5 14 13 10 17 -4 4 0 13 10 20 19 15 52 18 52 5
0 -4 27 -9 60 -9 46 -1 60 2 60 14 0 8 10 19 23 23 27 11 87 66 87 80 0 6 9
11 21 11 11 0 17 5 14 10 -3 6 -19 10 -36 10 -16 0 -29 -4 -29 -10 0 -13 -70
-13 -90 0 -10 6 -11 10 -2 10 6 0 12 11 12 24 0 29 24 35 118 28 50 -3 71 -1
79 9 10 12 2 14 -45 15 -31 0 -78 6 -104 14 -38 11 -48 19 -48 36 0 12 6 25
13 28 6 3 -1 2 -17 -1 -19 -4 -27 -2 -22 5 7 12 -29 26 -44 17 -6 -4 -10 5
-10 19 0 22 -4 26 -31 26 -24 0 -30 4 -27 18 5 24 -12 39 -39 34 -27 -5 -32
14 -5 21 9 3 -17 5 -58 6 -52 1 -70 4 -60 11 13 8 12 10 -2 10 -21 0 -24 16
-5 23 6 3 -2 6 -20 6 -17 1 -42 5 -55 10 -13 4 -29 6 -35 4z"/>
<path d="M200 7789 c0 -5 5 -7 10 -4 6 3 10 8 10 11 0 2 -4 4 -10 4 -5 0 -10
-5 -10 -11z"/>
<path d="M523 7613 c9 -2 23 -2 30 0 6 3 -1 5 -18 5 -16 0 -22 -2 -12 -5z"/>
<path d="M3547 7355 c-44 -15 -145 -99 -157 -130 -12 -31 -60 -85 -75 -85 -8
0 -21 7 -30 17 -14 13 -23 14 -48 6 -18 -6 -48 -14 -68 -17 -20 -4 -44 -15
-53 -25 -20 -22 -12 -52 12 -44 11 3 13 2 6 -4 -6 -4 -14 -24 -18 -44 -8 -46
-64 -102 -97 -97 -16 2 -24 -2 -25 -12 0 -16 -14 -80 -17 -80 -1 0 -20 7 -42
15 -138 50 -305 -33 -386 -191 -44 -88 -53 -195 -21 -268 25 -56 42 -59 42 -7
0 21 6 57 14 79 8 22 12 42 10 45 -6 6 12 85 27 123 7 16 11 33 11 37 -1 4 7
17 18 29 11 12 20 25 20 28 0 14 80 50 111 49 64 -1 147 -45 167 -87 10 -23 9
-36 -14 -97 -34 -89 -78 -136 -147 -158 -80 -25 -113 -29 -126 -14 -13 17 11
54 43 67 l21 9 -21 0 c-12 1 -34 -9 -49 -20 -22 -18 -26 -27 -21 -53 11 -53 5
-91 -31 -196 -56 -163 -74 -211 -94 -255 -20 -42 -23 -67 -24 -151 l0 -100 59
-100 c32 -54 73 -123 90 -152 31 -53 78 -98 188 -180 62 -46 96 -99 117 -186
15 -63 35 -100 80 -156 20 -24 48 -62 62 -85 15 -22 36 -50 48 -63 21 -21 21
-23 4 -28 -10 -3 -29 -10 -43 -14 -14 -5 -34 -10 -44 -12 -16 -2 -12 -8 21
-30 22 -14 59 -32 81 -39 33 -9 42 -17 42 -34 0 -23 -23 -36 -82 -49 -35 -8
-36 -26 -2 -26 23 0 25 -2 13 -16 -13 -16 -54 -37 -74 -39 -25 -2 -35 -16 -24
-36 8 -16 2 -36 -31 -103 -38 -76 -41 -88 -35 -132 8 -51 41 -106 76 -125 25
-13 36 -5 20 15 -7 8 -10 24 -7 34 4 11 0 24 -8 31 -29 24 5 131 57 179 20 19
29 21 50 13 24 -9 25 -12 14 -47 -6 -20 -17 -38 -24 -41 -15 -6 -18 -33 -4
-33 19 0 19 -30 -1 -55 -14 -18 -17 -29 -10 -38 14 -17 3 -77 -14 -77 -18 0
-18 -19 0 -26 8 -3 22 -27 31 -52 8 -26 31 -65 50 -87 19 -22 35 -43 35 -46 0
-7 -121 -62 -175 -79 -21 -7 -103 -44 -182 -82 -223 -109 -286 -182 -373 -433
-39 -113 -40 -115 -59 -115 -26 0 -61 -29 -61 -52 0 -20 0 -20 48 -1 6 3 12
-1 12 -8 -1 -22 -27 -52 -39 -44 -12 7 -10 -43 3 -63 4 -6 3 -20 -2 -29 -6
-10 -15 -60 -22 -111 -13 -91 -29 -131 -31 -75 -2 78 -6 101 -23 135 -10 20
-24 42 -32 49 -12 9 -14 5 -14 -24 0 -32 -5 -37 -48 -60 -40 -21 -49 -31 -63
-73 -9 -27 -17 -87 -18 -134 -2 -88 14 -250 29 -285 5 -11 11 -49 15 -85 4
-36 11 -71 17 -78 8 -9 6 -17 -6 -30 -9 -10 -16 -29 -16 -43 0 -40 27 -126 50
-164 26 -42 19 -58 -10 -24 -27 32 -54 89 -80 169 -35 111 -51 150 -61 150 -6
0 -8 -4 -4 -9 3 -5 1 -12 -5 -16 -16 -10 -12 -23 10 -30 11 -3 20 -13 20 -22
0 -13 -3 -13 -15 -3 -12 10 -16 9 -21 -6 -3 -11 -9 -26 -14 -35 -4 -8 -4 -22
0 -30 4 -8 13 -45 19 -84 17 -99 70 -262 87 -269 15 -6 19 -52 5 -60 -5 -4 -7
4 -4 16 5 19 3 21 -8 11 -7 -7 -18 -13 -24 -13 -14 0 -83 138 -92 183 -6 34
-31 87 -48 100 -6 6 -5 10 3 14 9 3 10 9 3 17 -6 7 -13 30 -16 52 -7 52 -22
114 -29 121 -3 3 -10 -5 -15 -18 -5 -13 -10 -20 -10 -15 -1 6 -8 1 -16 -10
-12 -16 -14 -17 -15 -2 0 9 3 24 6 33 5 13 9 14 15 4 4 -7 6 9 4 37 -2 27 -4
56 -4 64 -1 8 -6 22 -11 30 -9 13 -12 12 -25 -4 -8 -11 -15 -35 -15 -53 0 -18
-5 -33 -11 -33 -8 0 -8 -4 -1 -13 6 -7 10 -26 10 -42 -1 -45 10 -72 34 -78 16
-5 19 -10 12 -24 -12 -26 -7 -317 6 -321 6 -2 10 -41 10 -95 0 -129 33 -317
70 -400 23 -51 26 -63 39 -140 5 -27 13 -53 20 -60 6 -6 11 -26 11 -44 0 -18
4 -33 9 -33 5 0 7 -8 4 -18 -2 -10 4 -38 15 -62 10 -25 19 -62 20 -84 1 -21 6
-44 12 -50 6 -9 6 -17 -3 -25 -9 -11 -9 -14 1 -18 6 -3 12 -16 12 -29 0 -13 5
-24 10 -24 21 0 9 -41 -15 -50 -31 -12 -23 -40 11 -40 32 0 32 -30 0 -66 -47
-52 -52 -60 -48 -74 3 -8 0 -10 -8 -5 -8 5 -11 3 -8 -6 4 -10 18 -13 48 -11
l42 3 -6 -38 c-4 -21 -9 -50 -12 -65 -4 -18 -1 -28 6 -28 9 0 9 -4 3 -12 -6
-7 -13 -30 -16 -52 -3 -21 -14 -44 -23 -50 -24 -18 -8 -109 21 -114 10 -3 27
-15 38 -28 l18 -24 249 0 c246 0 249 0 264 22 10 14 16 44 16 75 0 29 5 53 10
53 6 0 10 23 10 50 0 47 40 149 62 158 17 8 8 120 -14 168 -18 42 -22 70 -24
194 -1 80 -3 150 -4 155 -1 6 -2 21 -1 34 2 36 23 12 45 -51 10 -29 21 -62 26
-73 4 -11 13 -40 20 -65 7 -25 25 -71 41 -102 27 -54 31 -57 54 -48 14 5 31 7
39 4 18 -7 27 19 19 56 -4 23 -11 30 -29 30 -20 0 -24 5 -24 30 0 18 -5 29
-12 28 -6 -2 -14 6 -16 17 -4 21 -38 70 -85 122 -32 35 -77 125 -77 152 0 30
41 105 73 134 24 21 28 30 19 39 -9 9 -12 9 -12 0 0 -8 -9 -10 -26 -6 -19 5
-25 4 -20 -5 4 -6 1 -11 -8 -11 -9 0 -16 -4 -16 -10 0 -5 5 -10 10 -10 6 0 10
-5 10 -12 0 -6 -11 -1 -25 12 -22 20 -25 32 -25 89 0 48 5 74 19 95 22 34 19
46 -11 46 -17 0 -19 4 -13 23 4 12 7 57 6 100 -3 110 15 250 65 492 56 273 71
333 149 595 9 30 25 92 35 138 11 45 22 86 24 91 9 15 44 186 55 274 6 48 16
125 22 172 6 47 15 88 20 91 5 3 9 10 9 15 0 6 -4 7 -10 4 -16 -10 -12 11 9
47 11 18 32 87 46 153 30 134 82 255 139 322 41 46 70 110 80 170 8 42 48 108
59 97 3 -4 0 -22 -8 -41 -25 -59 -19 -111 21 -188 20 -38 51 -90 69 -115 40
-55 60 -93 81 -156 9 -27 27 -72 40 -101 13 -28 24 -56 24 -62 0 -6 -19 -15
-42 -22 -62 -16 -143 -69 -220 -142 -58 -56 -138 -115 -230 -171 -16 -9 -28
-21 -28 -27 0 -5 15 1 33 14 42 32 82 52 73 38 -4 -6 -1 -14 7 -17 10 -3 14
-18 13 -44 -1 -21 1 -37 5 -34 4 2 17 -12 29 -31 16 -26 29 -35 49 -35 15 0
32 -5 37 -10 7 -7 17 -3 32 10 11 11 30 20 41 20 12 0 26 8 32 18 8 13 22 16
57 15 38 -2 42 -1 22 6 -25 9 -25 9 -3 16 14 5 24 19 30 43 5 19 14 37 20 39
6 2 42 -33 81 -79 38 -46 84 -95 101 -108 61 -48 106 -136 155 -301 9 -31 16
-65 16 -76 0 -21 -29 -96 -30 -78 0 6 -6 -1 -13 -15 -8 -16 -23 -26 -42 -29
-30 -4 -30 -4 -5 -11 l25 -8 -25 -1 c-20 -1 -22 -3 -10 -11 12 -7 8 -10 -15
-10 -31 -1 -75 -32 -94 -69 -7 -11 -22 -21 -34 -22 -21 0 -21 -1 -2 -9 18 -7
16 -8 -10 -12 l-30 -5 35 -3 c34 -3 34 -3 -10 -10 -44 -7 -44 -7 19 -8 52 -2
62 1 57 13 -3 8 -1 15 4 15 17 0 59 49 47 54 -7 2 -1 5 13 6 23 1 23 2 5 10
-18 8 -17 9 8 9 16 1 26 5 22 11 -3 6 3 10 14 10 14 0 19 5 15 15 -4 9 0 15 9
15 21 0 23 -17 16 -124 -6 -84 -11 -123 -40 -291 -6 -33 -12 -71 -14 -85 -2
-14 -11 -99 -20 -190 -25 -277 -24 -268 -47 -276 -17 -5 -18 -8 -7 -16 10 -7
8 -8 -8 -3 -15 4 -28 0 -40 -14 -12 -14 -31 -21 -58 -22 l-40 -2 35 -7 c31 -7
28 -8 -25 -9 -33 -1 -89 -5 -125 -8 l-65 -7 50 -7 50 -6 -57 -1 c-31 -1 -60
-7 -63 -12 -3 -5 0 -10 7 -10 37 -2 -62 -30 -106 -31 -28 -1 -62 -5 -76 -9
-15 -5 9 -7 60 -4 99 4 81 -3 -35 -14 -58 -5 -23 -7 130 -7 116 0 181 2 145 5
l-65 6 105 9 c81 7 97 11 70 16 l-35 6 43 2 c24 0 41 5 38 10 -4 5 3 7 14 4
13 -3 20 0 20 8 0 11 2 11 10 -1 9 -13 11 -13 20 0 8 12 10 8 11 -15 1 -60 -2
-166 -7 -193 -11 -54 -15 -177 -22 -670 l-7 -502 647 0 c565 0 647 2 652 15 4
11 14 14 33 9 19 -4 24 -3 15 4 -15 10 131 27 148 17 5 -3 25 6 46 20 20 14
40 25 45 25 4 0 24 24 45 53 21 28 42 53 46 55 4 2 5 9 2 15 -5 15 103 133
118 129 6 -2 8 4 5 12 -4 9 1 17 13 21 10 3 22 15 25 26 4 11 15 19 27 19 15
0 18 -3 10 -12 -5 -7 -13 -28 -17 -47 -4 -18 -29 -76 -55 -128 -27 -52 -53
-117 -59 -144 -6 -28 -16 -59 -21 -70 -11 -19 0 -19 545 -19 l555 0 0 25 c0
13 -11 59 -25 102 -14 43 -25 99 -25 125 0 36 -5 52 -22 68 -21 20 -21 21 -8
132 19 164 46 318 58 330 13 13 37 0 117 -61 71 -54 82 -66 91 -106 3 -16 28
-77 55 -134 l49 -104 -20 -54 c-11 -30 -20 -70 -20 -90 0 -20 -7 -60 -16 -88
-15 -46 -15 -57 -2 -96 l15 -44 222 -2 c122 -1 219 2 217 6 -3 4 8 8 24 7 17
-1 30 -4 30 -8 0 -5 117 -8 260 -8 l260 0 1 28 c2 80 -8 197 -26 272 -3 14 -8
86 -11 160 -7 175 -8 178 -38 173 -22 -5 -25 -1 -31 33 -4 22 -9 53 -12 69
-15 82 -177 341 -254 407 -11 9 -22 26 -24 36 -2 11 -8 28 -13 38 -18 34 -64
137 -103 234 -22 52 -45 104 -51 115 -6 11 -28 52 -49 92 -20 39 -40 69 -45
65 -4 -4 -4 -2 0 5 3 6 -5 28 -19 48 -24 36 -45 93 -45 125 0 13 -1 13 -11 0
-8 -11 -9 -8 -4 13 4 19 2 26 -5 22 -5 -3 -10 2 -10 13 0 10 -11 40 -24 68
-13 27 -27 60 -31 74 -4 14 -13 32 -20 40 -8 8 -17 28 -21 44 -4 16 -13 41
-20 55 -8 14 -14 32 -14 39 0 6 -4 12 -9 12 -5 0 -12 11 -15 24 -3 13 -9 32
-12 43 -4 10 5 1 20 -19 14 -20 26 -39 26 -43 0 -3 29 -66 65 -141 36 -75 65
-138 65 -140 0 -12 110 -264 128 -293 19 -32 21 -32 31 -13 21 39 -21 205 -99
392 -65 158 -72 184 -40 155 26 -23 32 -17 21 21 -5 16 -14 47 -19 69 -5 22
-28 85 -49 140 -22 55 -38 106 -35 113 2 7 -1 12 -7 12 -6 0 -11 12 -11 26 0
14 -19 64 -42 111 -24 49 -42 101 -43 122 0 20 -10 56 -22 81 -38 80 -83 194
-78 198 8 9 26 -11 50 -56 22 -43 24 -45 25 -19 0 50 -22 118 -44 132 -22 14
-97 23 -204 24 -36 1 -61 5 -57 10 7 12 -12 24 -25 16 -8 -5 -8 -11 0 -20 11
-14 -6 -25 -39 -25 -28 0 -41 -20 -28 -41 9 -14 7 -22 -8 -39 -25 -27 -24 -69
4 -160 12 -41 26 -97 31 -125 5 -27 18 -86 29 -130 19 -78 27 -132 35 -247 3
-32 7 -62 11 -67 11 -20 8 -143 -4 -151 -7 -4 -13 -32 -14 -64 -1 -31 -5 -56
-9 -56 -3 0 -6 80 -6 178 2 228 -24 387 -91 562 -16 41 -32 83 -35 93 -8 26
-35 20 -46 -10 -6 -16 -17 -40 -25 -54 -11 -20 -12 -34 -5 -60 10 -32 2 -48
-24 -49 -13 0 -35 -33 -36 -52 0 -19 -20 -26 -20 -8 0 6 -9 10 -20 10 -26 0
-40 29 -40 84 0 25 -4 55 -9 68 -5 13 -14 46 -19 73 -29 137 -47 212 -79 340
-19 77 -39 164 -44 193 -5 30 -15 63 -23 75 -7 12 -19 41 -26 64 -17 56 -93
132 -161 162 -30 12 -72 31 -94 41 -22 11 -75 35 -118 54 -53 24 -81 42 -84
56 -3 11 -9 20 -14 20 -5 0 -9 4 -9 9 0 8 109 61 126 61 4 0 19 -14 34 -31 24
-30 27 -31 43 -15 21 21 22 51 2 106 -8 24 -13 52 -9 62 3 10 0 34 -6 52 -10
30 -8 38 15 72 14 21 28 49 31 63 3 14 9 34 15 44 6 11 6 17 -1 17 -5 0 -10
20 -10 44 0 24 -7 57 -15 72 -8 16 -12 36 -10 45 3 9 1 28 -5 43 -7 21 -6 34
5 56 17 34 18 40 6 40 -5 0 -12 -9 -16 -19 -3 -11 -13 -22 -21 -25 -12 -4 -15
-2 -11 9 4 8 2 17 -3 20 -6 4 -10 13 -10 21 0 8 -16 28 -35 45 -25 22 -35 39
-35 61 0 16 -5 38 -11 50 -10 19 -9 20 23 13 77 -16 147 -76 181 -155 9 -19
16 -30 16 -24 2 29 -44 107 -86 143 -42 38 -44 41 -21 41 71 0 176 57 255 138
37 38 46 65 11 32 -45 -42 -138 -80 -192 -79 l-51 1 48 8 c60 11 121 42 166
86 20 19 41 34 48 34 13 0 28 38 19 47 -3 4 -23 -7 -44 -24 -81 -65 -171 -87
-247 -59 l-40 14 28 13 c39 18 34 25 -15 21 -52 -4 -118 22 -125 48 -3 11 -9
17 -14 14 -20 -12 -7 20 26 63 39 52 65 126 65 188 0 23 -9 84 -20 136 -11 52
-20 97 -20 102 0 13 69 8 107 -8 20 -8 38 -13 40 -11 4 4 -81 47 -132 66 -29
11 -49 54 -37 77 5 8 12 14 16 13 4 -1 21 4 38 11 24 10 33 10 36 1 2 -7 7
-12 12 -12 4 0 3 18 -2 40 -11 43 -28 54 -28 19 0 -19 -4 -21 -37 -14 -21 4
-38 8 -38 8 -1 1 -6 9 -13 18 -9 13 -8 27 7 70 23 70 42 73 70 12 l21 -48 -5
55 c-9 113 -23 206 -34 230 -7 14 -23 45 -36 70 -13 25 -24 50 -25 55 -1 21
-106 126 -130 130 -52 9 -173 80 -204 120 -48 61 -156 162 -211 199 -225 148
-289 180 -340 170 -23 -4 -35 -2 -35 5 0 6 -19 11 -45 11 -38 0 -45 -3 -45
-20 0 -14 -7 -20 -21 -20 -11 0 -18 3 -16 8 3 4 -14 7 -36 8 -44 0 -107 25
-167 66 -19 13 -53 29 -76 36 -22 6 -80 41 -128 77 -87 65 -109 78 -86 50 16
-19 5 -18 -45 5 -23 11 -32 19 -22 19 32 2 7 21 -26 21 -18 0 -77 18 -132 39
-55 21 -120 42 -145 45 -25 4 -58 11 -75 16 -63 17 -81 18 -118 5z m26 -42
c-7 -2 -19 -2 -25 0 -7 3 -2 5 12 5 14 0 19 -2 13 -5z m1287 -368 c17 -9 30
-21 30 -27 0 -9 -3 -9 -12 0 -7 7 -19 12 -28 12 -9 0 -25 7 -36 15 -18 13 -18
14 -1 15 10 0 31 -7 47 -15z m-1959 -136 c49 -16 61 -31 51 -58 l-8 -23 -31
26 c-17 14 -55 31 -84 38 -51 12 -52 13 -24 19 46 10 59 10 96 -2z m949 -29
c134 -20 132 -19 124 -42 -5 -17 -3 -20 10 -15 10 4 16 1 16 -9 0 -10 6 -13
18 -10 22 7 47 -8 38 -23 -4 -6 -17 -11 -30 -11 -12 0 -27 -5 -33 -11 -13 -13
-5 -51 10 -42 6 4 8 -2 5 -15 -4 -12 -2 -22 3 -22 5 0 9 -22 9 -49 0 -47 1
-48 34 -54 48 -8 106 -36 106 -52 0 -10 -9 -11 -38 -4 -38 8 -74 7 -164 -7
-33 -4 -53 -3 -63 6 -11 9 -18 10 -29 1 -7 -6 -27 -8 -45 -5 -19 4 -31 2 -31
-4 0 -6 -8 -11 -17 -11 -10 0 -29 -3 -43 -5 -14 -2 -29 -5 -33 -5 -5 -1 -5 -6
-1 -13 5 -8 -2 -9 -24 -5 -18 4 -32 2 -32 -3 0 -5 -10 -18 -22 -30 -15 -13
-17 -20 -8 -20 8 0 -5 -18 -28 -39 -41 -39 -52 -64 -32 -76 28 -17 61 -170 38
-177 -20 -7 -11 -138 9 -138 8 0 11 -4 8 -10 -6 -9 9 -15 29 -11 17 4 56 -22
56 -36 0 -8 -12 -13 -31 -13 -22 0 -30 4 -26 14 7 18 -78 29 -125 16 -38 -11
-118 -83 -118 -107 0 -10 -6 -14 -20 -10 -45 12 -56 -56 -19 -120 23 -41 23
-43 6 -72 -9 -16 -17 -35 -17 -43 0 -7 -27 -47 -59 -89 -63 -81 -111 -168
-111 -200 0 -60 -45 35 -70 146 -25 115 -8 318 31 360 5 5 9 17 9 27 0 11 5
15 14 12 8 -3 17 -1 21 5 3 6 14 11 23 11 9 0 28 9 42 20 14 11 33 20 42 20
15 0 44 33 73 81 61 104 78 128 105 154 23 22 30 38 30 65 -1 48 10 100 21
100 5 0 9 4 9 9 0 5 -18 11 -40 15 -22 3 -40 8 -40 10 0 3 -3 12 -7 22 -5 13
-3 15 7 9 8 -5 11 -4 6 3 -6 10 -50 3 -75 -12 -5 -3 -11 -2 -13 4 -4 14 -96 1
-113 -16 -18 -18 -45 -7 -45 17 0 11 7 30 15 43 9 13 15 28 13 32 -4 13 44
124 54 124 4 0 8 6 8 14 0 8 7 17 16 20 9 4 14 13 10 21 -8 21 3 45 21 45 8 0
11 5 8 10 -6 10 17 40 30 40 3 0 21 11 39 25 18 14 38 25 44 25 7 0 12 4 12
10 0 14 86 70 107 70 10 0 28 7 39 15 26 18 110 35 144 29 14 -2 54 -9 90 -14z
m-1250 -155 c0 -15 -24 -53 -31 -49 -5 3 -9 -36 -9 -87 0 -74 -2 -91 -12 -81
-8 8 -13 41 -13 85 0 63 4 77 25 104 22 29 40 41 40 28z m2710 -97 c0 -17 -10
-6 -25 25 l-16 32 20 -25 c11 -14 21 -28 21 -32z m170 -38 c94 -47 118 -66
145 -121 30 -57 19 -65 -17 -13 -16 21 -59 55 -109 84 -102 59 -129 78 -129
90 0 11 20 4 110 -40z m-1285 -70 c3 -5 -1 -10 -9 -10 -9 0 -16 5 -16 10 0 6
4 10 9 10 6 0 13 -4 16 -10z m1280 -91 c11 -17 2 -18 -19 -3 -17 12 -17 14 -4
14 9 0 20 -5 23 -11z m42 -36 c-2 -5 8 -19 21 -33 14 -14 22 -19 18 -12 -4 6
-3 12 2 12 10 0 22 -24 22 -43 0 -7 -4 -6 -10 3 -9 13 -10 13 -10 -1 0 -8 7
-24 15 -35 16 -21 20 -74 6 -74 -14 0 -51 50 -58 79 -3 14 -14 42 -25 61 -23
44 -23 50 3 50 11 0 18 -3 16 -7z m183 -183 c0 -11 -4 -20 -9 -20 -5 0 -7 9
-4 20 3 11 7 20 9 20 2 0 4 -9 4 -20z m-3074 -58 c-2 -15 -16 -56 -30 -91 -29
-72 -46 -153 -46 -223 0 -52 -15 -63 -30 -22 -17 45 -12 149 11 211 12 32 25
60 28 63 3 3 17 26 30 52 27 50 42 55 37 10z m2944 18 c0 -5 -4 -10 -10 -10
-5 0 -10 5 -10 10 0 6 5 10 10 10 6 0 10 -4 10 -10z m-1220 -72 c29 -32 35
-64 16 -93 -9 -14 -16 -27 -16 -30 0 -7 -39 -45 -47 -46 -5 0 -19 -14 -32 -31
-21 -26 -23 -33 -12 -50 10 -15 10 -23 0 -35 -10 -12 -10 -16 1 -23 7 -4 10
-15 7 -24 -10 -27 -27 -18 -27 14 0 17 -4 30 -9 30 -5 0 -8 -21 -8 -47 0 -42
-2 -48 -22 -51 -12 -2 -25 -10 -27 -17 -3 -8 -13 -11 -22 -8 -11 5 -14 2 -9
-9 3 -9 -1 -25 -9 -37 -8 -12 -12 -26 -9 -31 3 -6 -3 -10 -14 -10 -12 0 -21 6
-21 13 0 9 -2 9 -8 -1 -11 -17 -91 -1 -129 26 -17 12 -33 19 -36 15 -4 -3 -13
-1 -20 6 -8 6 -35 12 -61 13 -37 2 -52 8 -72 31 l-25 28 25 20 c38 30 46 101
16 141 -12 17 -18 33 -14 37 13 9 15 79 3 87 -6 3 -7 9 -3 13 5 3 16 20 25 36
9 17 22 29 29 27 7 -2 17 3 21 10 7 10 9 10 9 0 0 -7 12 -12 28 -12 15 0 65
-4 112 -8 125 -13 202 -8 247 16 50 27 87 27 113 0z m50 -38 c0 -5 -2 -10 -4
-10 -3 0 -8 5 -11 10 -3 6 -1 10 4 10 6 0 11 -4 11 -10z m-1640 -44 c0 -3 -4
-8 -10 -11 -5 -3 -10 -1 -10 4 0 6 5 11 10 11 6 0 10 -2 10 -4z m20 -144 c0
-117 -9 -147 -34 -122 -17 17 -40 153 -31 182 8 23 25 24 25 1 0 -15 2 -16 9
-3 6 8 7 18 4 23 -8 13 6 39 17 32 6 -4 10 -52 10 -113z m2915 98 c3 -6 -5
-10 -19 -10 -14 0 -28 5 -31 10 -3 6 5 10 19 10 14 0 28 -4 31 -10z m-76 -255
c0 -31 -2 -36 -9 -20 -5 11 -9 38 -9 60 0 31 2 36 9 20 5 -11 9 -38 9 -60z
m101 -107 c0 -19 -2 -20 -10 -8 -13 19 -13 30 0 30 6 0 10 -10 10 -22z m-40
-19 c0 -11 5 -17 10 -14 17 11 16 -63 -3 -110 -19 -51 -97 -120 -97 -86 0 5 7
14 15 21 8 7 15 21 15 31 0 24 20 35 31 18 13 -21 11 38 -3 77 -9 25 -9 39 0
59 14 30 32 33 32 4z m-2164 -4 c-11 -8 -27 -15 -35 -15 -10 1 -7 6 9 15 33
19 50 18 26 0z m1467 -11 c13 -13 -7 -34 -40 -40 -40 -8 -68 10 -43 27 8 5 25
8 38 6 12 -2 22 0 22 4 0 10 14 12 23 3z m643 -71 c-11 -11 -19 6 -11 24 8 17
8 17 12 0 3 -10 2 -21 -1 -24z m14 -33 c-8 -5 -17 -7 -19 -4 -3 3 1 9 9 14 8
5 17 7 19 4 3 -3 -1 -9 -9 -14z m-1992 -40 c-7 -11 -22 -20 -34 -20 -12 0 -24
-7 -28 -15 -3 -9 -18 -15 -36 -15 -16 0 -30 -4 -30 -9 0 -5 -16 -15 -35 -21
-19 -6 -35 -16 -35 -21 0 -6 -5 -7 -11 -3 -6 3 -15 0 -20 -7 -5 -9 -7 -3 -5
16 5 42 5 42 17 25 8 -12 9 -11 4 6 -3 12 0 26 7 32 16 12 153 50 191 51 25 1
26 -1 15 -19z m-383 -180 c3 -5 1 -10 -4 -10 -6 0 -11 5 -11 10 0 6 2 10 4 10
3 0 8 -4 11 -10z m515 -71 c0 -21 -16 -26 -23 -6 -3 6 -6 3 -7 -8 -1 -20 -1
-20 -15 -1 -18 24 -12 34 20 34 18 0 25 -6 25 -19z m-530 -9 c0 -5 -2 -10 -4
-10 -3 0 -8 5 -11 10 -3 6 -1 10 4 10 6 0 11 -4 11 -10z m2560 0 c0 -5 -7 -10
-15 -10 -8 0 -15 5 -15 10 0 6 7 10 15 10 8 0 15 -4 15 -10z m-195 -46 c31
-27 28 -27 -17 -4 -16 7 -28 17 -28 22 0 14 14 9 45 -18z m-2360 2 c20 -14 26
-16 45 -16 6 0 5 -8 -2 -20 -9 -14 -14 -16 -20 -7 -5 8 -8 7 -8 -5 0 -10 -4
-18 -10 -18 -5 0 -10 6 -10 13 0 8 -9 22 -20 32 -36 32 -15 50 25 21z m168
-46 c-17 -19 -63 -28 -63 -12 0 9 40 29 62 31 17 1 17 0 1 -19z m2230 -64 c30
-26 36 -49 12 -44 -17 3 -63 68 -48 68 4 0 20 -11 36 -24z m42 -172 c9 -9 14
-19 11 -21 -9 -9 -46 9 -46 23 0 19 15 18 35 -2z m-2555 -18 c0 -2 -7 -7 -16
-10 -8 -3 -12 -2 -9 4 6 10 25 14 25 6z m37 -2 c-3 -3 -12 -4 -19 -1 -8 3 -5
6 6 6 11 1 17 -2 13 -5z m2468 -34 c3 -5 2 -10 -4 -10 -5 0 -13 5 -16 10 -3 6
-2 10 4 10 5 0 13 -4 16 -10z m60 -110 c8 -14 -35 -60 -57 -60 -34 0 -98 39
-92 55 13 34 129 38 149 5z m82 -113 c4 -34 1 -51 -13 -70 -17 -22 -20 -23
-41 -10 -13 9 -23 23 -23 33 0 10 -10 25 -22 33 -19 14 -21 18 -8 26 8 5 19 7
25 4 5 -4 7 -3 3 2 -4 4 4 19 19 32 23 22 27 23 40 10 9 -8 18 -35 20 -60z
m-90 -113 c-9 -9 -27 6 -27 22 0 13 2 13 16 -1 9 -9 14 -18 11 -21z m-157 -14
c0 -5 -4 -10 -10 -10 -5 0 -10 5 -10 10 0 6 5 10 10 10 6 0 10 -4 10 -10z
m153 -248 c-14 -22 -73 -37 -95 -23 -9 6 -24 8 -33 5 -8 -3 -15 -2 -15 4 0 5
8 13 17 16 14 6 15 9 4 16 -11 6 -5 16 24 42 21 18 47 38 59 45 20 11 22 8 35
-39 10 -35 11 -56 4 -66z m-663 93 c0 -3 -7 -22 -15 -42 -19 -45 -19 -57 1
-49 11 4 18 -1 21 -15 4 -15 8 -17 14 -8 6 10 11 10 23 0 9 -7 14 -17 11 -21
-3 -5 -1 -11 5 -15 16 -10 12 -25 -7 -26 -13 0 -11 -3 6 -10 18 -7 27 -6 33 3
4 7 5 -20 3 -61 -5 -66 -4 -73 10 -61 12 10 21 9 50 -4 19 -9 35 -21 35 -26 0
-5 6 -7 14 -4 12 4 14 -8 12 -63 -5 -118 -3 -114 -30 -109 -31 6 -60 -15 -62
-45 -1 -13 -7 -37 -13 -53 -15 -38 -2 -50 35 -31 16 8 23 15 16 15 -7 0 -10 5
-6 11 4 8 9 8 17 0 8 -8 7 -33 -2 -88 -14 -88 -43 -183 -49 -165 -2 7 -11 12
-20 12 -13 0 -12 3 4 15 18 14 17 14 -13 15 -26 0 -33 -4 -33 -20 0 -11 -2
-20 -4 -20 -2 0 -12 -3 -22 -7 -13 -5 -15 -3 -9 7 5 8 3 11 -6 8 -8 -3 -12
-14 -11 -24 2 -10 1 -16 -4 -12 -4 4 -13 0 -21 -10 -12 -15 -14 -16 -25 -1
-41 52 -375 234 -414 226 -13 -2 -24 0 -24 5 0 8 49 87 60 98 3 3 28 41 56 85
81 128 302 425 316 425 4 0 8 7 8 16 0 21 18 54 30 54 6 0 10 -2 10 -5z
m-1775 -36 c-6 -16 -9 -18 -16 -8 -4 8 -3 19 3 26 15 18 21 9 13 -18z m323
-38 c3 -8 -1 -12 -9 -9 -7 2 -15 10 -17 17 -3 8 1 12 9 9 7 -2 15 -10 17 -17z
m1497 -2 c11 -17 0 -20 -21 -4 -17 13 -17 14 -2 15 9 0 20 -5 23 -11z m-1444
-44 c13 -19 30 -35 37 -35 6 0 12 -4 12 -10 0 -15 -11 -12 -44 9 -17 11 -35
17 -40 14 -6 -3 -8 -3 -4 2 4 4 3 14 -3 21 -11 13 -5 34 10 34 5 0 19 -16 32
-35z m-411 -109 c0 -17 -32 18 -44 48 -21 50 -5 53 20 5 13 -24 23 -48 24 -53z
m110 34 c0 -5 -2 -10 -4 -10 -3 0 -8 5 -11 10 -3 6 -1 10 4 10 6 0 11 -4 11
-10z m2000 -253 c0 -6 6 -18 14 -26 8 -9 17 -32 19 -51 3 -19 6 -35 7 -35 1 0
8 -29 15 -65 7 -36 16 -75 20 -86 5 -16 0 -28 -20 -47 -30 -27 -96 -62 -137
-72 -25 -6 -28 -4 -28 17 0 13 7 33 15 44 8 10 15 33 15 49 0 17 7 39 15 49 8
11 15 32 15 47 0 15 5 31 10 34 6 3 10 39 10 79 0 58 3 73 15 73 8 0 15 -5 15
-10z m-111 -86 c11 -7 12 -16 4 -43 -9 -27 -11 -29 -12 -10 -1 15 -9 26 -21
29 -23 6 -26 19 -7 26 18 8 21 8 36 -2z m-1443 -160 c46 -12 95 -53 143 -120
36 -51 29 -71 -15 -49 -32 15 -48 53 -18 41 14 -5 12 0 -7 28 -13 19 -28 37
-34 41 -15 11 -20 -1 -7 -14 19 -19 14 -30 -7 -18 -15 7 -19 7 -17 -5 1 -8 5
-18 9 -21 9 -10 9 -26 -2 -43 -8 -12 -15 -11 -44 9 -46 32 -62 57 -46 76 9 11
5 21 -20 49 -38 44 -39 56 -3 45 15 -5 46 -14 68 -19z m1644 -111 c0 -5 -4
-10 -10 -10 -5 0 -10 5 -10 10 0 6 5 10 10 10 6 0 10 -4 10 -10z m4 -42 c-3
-5 -12 -4 -20 3 -19 16 -18 18 6 12 11 -3 17 -9 14 -15z m-1124 8 c0 -3 -4 -8
-10 -11 -5 -3 -10 -1 -10 4 0 6 5 11 10 11 6 0 10 -2 10 -4z m830 -41 c0 -9
-9 -15 -22 -15 -22 1 -23 1 -4 15 25 19 26 19 26 0z m-839 -13 c-19 -6 -84
-77 -133 -144 -42 -57 -70 -79 -47 -37 40 76 172 210 189 192 3 -3 -1 -8 -9
-11z m-295 -42 c21 0 26 -19 10 -36 -9 -8 -16 -13 -16 -9 0 3 -10 -1 -22 -9
-26 -18 -64 -21 -74 -5 -3 6 10 27 30 48 20 20 36 43 37 51 1 8 6 3 12 -12 6
-16 16 -28 23 -28z m1445 -27 c5 -14 11 -47 14 -73 l4 -47 -40 7 c-31 6 -41 4
-49 -9 -7 -11 -9 -12 -10 -2 0 16 -33 9 -97 -21 -38 -18 -46 -19 -54 -7 -7 11
-9 9 -9 -8 0 -15 6 -23 18 -24 14 0 14 -2 -3 -9 -15 -7 -9 -9 25 -9 26 -1 55
6 68 14 14 11 37 14 69 12 88 -8 102 -15 109 -56 3 -20 10 -49 15 -65 5 -16 9
-42 9 -57 0 -16 4 -29 9 -29 6 0 12 -21 16 -47 3 -27 9 -60 14 -75 5 -16 5
-30 0 -33 -4 -3 0 -21 11 -40 11 -19 22 -45 24 -57 2 -13 9 -36 16 -53 8 -20
8 -31 1 -33 -6 -2 -11 -8 -11 -13 0 -6 4 -8 9 -5 5 3 16 -18 26 -46 16 -51 16
-53 -4 -69 -17 -14 -28 -15 -63 -6 -24 5 -57 11 -75 11 -17 1 -35 4 -39 8 -4
4 -18 5 -30 3 -13 -3 -36 -7 -50 -10 -16 -4 -23 -2 -19 5 4 6 -4 10 -18 10
-14 0 -40 2 -58 5 -29 4 -30 3 -9 -4 22 -8 19 -9 -20 -10 -28 0 -40 2 -32 8
18 11 -8 22 -51 20 -30 -2 -29 -2 8 -9 30 -5 20 -7 -45 -7 -67 0 -75 1 -40 7
25 3 -22 5 -105 2 -87 -2 -167 1 -190 7 -32 8 -13 10 95 7 85 -2 109 -1 65 3
-59 6 -64 8 -35 13 23 3 17 4 -15 2 -27 -2 -111 -5 -185 -6 -86 -1 -108 -3
-60 -5 51 -3 70 -7 60 -13 -10 -7 1 -10 38 -10 29 0 51 -3 49 -7 -3 -5 52 -8
121 -7 l127 1 -105 -7 -105 -6 85 -2 c47 -1 108 -4 135 -6 41 -3 44 -2 15 4
-27 6 -18 7 40 8 77 0 196 -13 150 -18 -22 -2 -21 -3 10 -12 19 -5 62 -7 95
-4 33 3 83 8 110 10 l50 5 -53 -9 c-74 -11 -80 -24 -8 -15 41 5 56 3 52 -4 -5
-7 3 -11 21 -10 25 0 26 1 8 9 -15 6 -9 8 22 7 27 -1 43 -7 43 -14 0 -7 5 -13
11 -13 7 0 20 -10 30 -21 18 -20 18 -23 2 -34 -15 -11 -15 -13 6 -20 15 -4 22
-14 20 -28 -2 -36 0 -48 10 -43 10 7 25 -43 16 -52 -3 -3 -61 -5 -128 -4 -146
1 -142 -6 9 -16 105 -7 109 -8 108 -29 -1 -13 2 -23 6 -23 4 0 4 -18 0 -40 -4
-22 -5 -40 -1 -40 3 0 -1 -5 -9 -10 -12 -8 -12 -12 -2 -18 9 -6 11 -57 2 -57
-1 0 -4 -12 -5 -27 -4 -31 -41 -73 -51 -57 -3 6 -4 13 0 16 3 3 -1 12 -9 19
-15 16 -51 19 -59 5 -3 -5 -23 -12 -43 -16 -32 -6 -35 -9 -18 -15 19 -8 19 -9
-3 -9 -21 -1 -22 -3 -8 -16 11 -12 40 -15 124 -15 104 0 172 -12 172 -30 0 -5
-24 -16 -54 -24 -30 -9 -61 -23 -70 -31 -8 -8 -23 -15 -33 -15 -15 0 -16 -2
-3 -10 11 -7 -4 -10 -50 -11 l-65 -2 50 -7 50 -7 -47 -1 c-27 -1 -48 -6 -48
-12 0 -5 -12 -11 -27 -11 l-28 -1 30 -8 c21 -5 24 -8 10 -10 -13 -1 -5 -6 20
-14 26 -8 35 -14 25 -18 -13 -6 -13 -8 0 -17 13 -10 13 -13 -2 -25 -22 -16
-23 -36 -2 -36 24 0 6 -20 -19 -21 -20 -1 -20 -2 3 -9 l25 -8 -25 -3 c-14 -1
-3 -5 25 -9 44 -6 46 -7 15 -9 -29 -2 -32 -4 -15 -11 15 -7 10 -9 -25 -10 -38
-2 -41 -3 -20 -10 21 -7 18 -8 -20 -10 l-45 -3 40 -7 40 -7 -40 -3 c-39 -2
-39 -3 -10 -10 17 -4 23 -8 15 -9 -13 -1 -13 -2 0 -11 12 -8 10 -10 -10 -11
l-25 -1 25 -8 c23 -7 23 -8 -10 -10 -19 -1 -27 -4 -17 -7 28 -7 19 -23 -13
-23 -18 0 -33 6 -36 15 -7 17 -44 21 -44 5 0 -5 -24 -11 -52 -12 l-53 -1 55
-7 55 -7 -65 -3 -65 -4 58 -3 c32 -2 64 0 71 6 16 13 38 -2 31 -21 -4 -11 0
-18 12 -22 10 -3 -7 -4 -37 -1 -38 2 -47 1 -30 -5 19 -6 10 -9 -40 -10 l-65
-3 90 -8 c139 -13 133 -19 -15 -15 -74 2 -112 0 -85 -3 80 -10 68 -31 -17 -33
l-73 -2 75 -6 75 -6 -85 -2 c-59 -2 -80 -5 -70 -12 8 -5 38 -7 65 -4 28 3 77
1 110 -4 58 -9 56 -10 -55 -12 -107 -2 -246 -16 -190 -19 14 -1 50 -4 80 -7
40 -4 51 -3 40 5 -11 8 19 10 110 9 110 -1 116 -2 55 -8 -51 -5 -59 -7 -27 -8
23 -1 42 -6 42 -11 0 -5 3 -18 6 -28 6 -17 6 -17 -7 0 -9 11 -21 16 -31 12
-22 -9 -12 -35 13 -35 10 0 19 -5 19 -11 0 -8 -18 -10 -61 -5 -34 3 -87 7
-118 8 -51 1 -48 2 24 8 l80 6 -65 4 -65 3 65 7 65 7 -75 3 -75 4 75 5 c70 6
65 7 -74 14 -106 6 -153 13 -163 23 -8 8 -33 15 -56 15 -40 1 -40 2 -12 9 l30
8 -30 2 c-24 2 -22 4 15 9 38 5 26 8 -80 19 -156 17 -169 19 -100 21 30 1 62
6 70 11 13 9 13 10 0 10 -13 0 -13 2 -1 9 16 10 -1 16 -64 24 -25 3 -23 4 10
6 59 2 73 17 15 16 -59 0 -73 19 -15 21 l40 2 -40 -8 -40 -7 37 -2 c20 0 44 2
53 5 25 10 -2 24 -47 24 -20 0 -39 4 -42 9 -3 4 7 7 22 5 l27 -4 -25 9 c-14 5
-38 10 -55 12 -22 1 -17 4 20 9 l50 7 -40 3 -40 3 40 8 c34 7 31 7 -20 4 -33
-1 -54 -1 -46 2 11 4 11 7 0 13 -7 5 -23 4 -37 -1 -31 -12 -42 -4 -42 32 0 23
4 29 23 30 21 0 21 1 2 9 -17 7 -14 9 15 10 19 1 27 4 18 7 -34 9 3 28 51 26
42 -2 41 -1 -13 7 -82 13 -81 20 0 16 56 -3 60 -2 24 4 l-45 7 55 3 55 3 -50
7 -50 7 55 2 c43 2 49 5 30 11 -24 7 -23 7 10 12 27 4 22 5 -25 8 l-60 3 50 7
50 7 -47 1 c-25 1 -54 5 -64 9 -11 4 -15 3 -10 -5 4 -7 -6 -6 -28 3 -20 8 -47
15 -62 15 -22 0 -25 3 -20 22 3 13 6 31 6 41 0 11 8 17 24 17 33 0 42 17 14
26 -41 12 -46 44 -7 44 11 0 17 -5 14 -10 -3 -5 3 -10 13 -10 11 0 35 -2 53
-5 29 -4 30 -3 9 4 -23 8 -23 9 10 10 46 2 80 11 80 22 0 5 -26 8 -57 7 l-58
-1 45 -7 45 -8 -45 2 c-30 1 -44 5 -43 14 2 8 -12 12 -44 12 -33 0 -44 3 -37
10 7 7 25 8 53 1 31 -7 41 -6 38 2 -2 7 -12 13 -23 15 -53 8 -65 13 -57 25 4
7 9 23 10 37 4 48 15 90 25 90 5 0 6 5 3 10 -3 6 -1 10 5 10 6 0 8 5 5 10 -3
6 1 10 10 10 8 0 18 -7 21 -15 8 -21 21 -19 27 4 3 13 -1 21 -12 24 -9 3 -4 5
12 6 15 0 27 6 27 12 0 6 9 8 23 4 17 -5 19 -4 7 4 -8 6 -33 10 -55 10 -31 0
-36 -2 -20 -9 17 -7 17 -9 3 -9 -10 -1 -18 -5 -18 -11 0 -5 -6 -10 -14 -10
-11 0 -13 10 -9 40 3 22 2 40 -3 40 -13 0 -37 -58 -29 -70 3 -5 2 -10 -3 -10
-13 0 -11 -30 2 -30 6 0 3 -5 -6 -11 -9 -5 -15 -16 -12 -23 3 -8 1 -17 -5 -20
-6 -4 -8 -13 -4 -21 6 -17 -22 -21 -32 -5 -3 6 0 10 7 10 10 0 11 2 0 8 -7 5
-10 16 -7 24 4 9 2 19 -4 23 -8 4 -8 12 -1 26 6 11 8 24 5 29 -3 6 2 10 12 10
15 0 14 3 -6 19 l-24 18 21 21 c11 11 23 18 26 15 3 -3 8 2 12 11 4 10 18 16
39 16 19 0 37 5 41 11 5 9 -3 10 -29 5 -21 -4 -38 -2 -42 4 -3 5 -1 10 4 10 6
0 11 5 11 10 0 14 -27 13 -32 -1 -5 -16 -103 -24 -112 -10 -4 6 -14 11 -22 11
-9 0 -22 6 -29 14 -20 20 1 36 50 36 24 0 35 4 27 8 -12 8 4 20 48 36 8 3 -17
4 -57 3 -39 -1 -71 0 -71 3 2 24 -6 30 -39 31 -31 0 -34 2 -18 9 17 7 17 9 3
9 -10 1 -18 3 -18 5 0 2 -3 12 -6 20 -5 12 -2 15 12 9 12 -4 15 -3 10 5 -10
16 14 15 33 -1 10 -9 26 -11 46 -6 l30 7 -32 1 c-18 0 -33 4 -32 9 3 21 -15
51 -34 56 -17 4 -19 8 -10 17 9 9 16 9 28 -1 13 -11 15 -9 15 13 0 14 6 28 13
31 6 3 2 3 -11 0 -30 -7 -83 5 -81 19 1 7 -1 20 -6 30 -5 12 1 28 19 51 16 21
22 37 16 41 -16 10 -1 25 25 25 12 0 33 11 46 25 13 13 34 25 47 25 12 0 22 5
22 10 0 6 12 10 28 11 l27 1 -25 8 c-21 7 -18 8 20 11 l45 2 -45 7 c-25 4 -37
8 -27 8 10 1 16 6 12 12 -11 18 29 50 65 51 32 1 33 2 10 9 -25 8 -25 8 5 10
l30 2 -30 8 c-24 6 -15 8 40 11 l70 2 -65 7 c-62 6 -59 7 45 10 l110 4 -100 6
-100 6 95 4 c90 4 91 4 28 7 -69 4 -80 11 -53 33 9 7 13 21 10 31 -5 15 -1 19
15 19 12 0 19 4 15 9 -8 15 84 26 98 12 6 -6 43 -10 91 -9 70 1 75 2 36 8
l-45 7 45 2 c38 3 41 4 20 11 -23 7 -23 8 -3 9 12 1 25 -3 28 -9 3 -5 41 -10
83 -9 52 0 71 3 57 9 -14 6 -15 9 -4 9 8 1 20 -4 27 -11 6 -6 15 -8 19 -4 5 4
0 13 -10 20 -25 19 -21 26 16 26 30 1 31 2 13 15 -18 14 -18 15 7 26 15 7 24
16 21 21 -7 10 78 98 95 98 6 0 11 4 11 8 0 15 44 31 88 31 37 1 44 -2 53 -26z
m-2026 -133 c-28 -12 -37 -12 -30 0 3 6 16 10 28 9 21 0 21 -1 2 -9z m625 -14
c0 -9 -40 -13 -46 -5 -3 5 6 9 20 9 14 0 26 -2 26 -4z m793 -83 c-7 -2 -19 -2
-25 0 -7 3 -2 5 12 5 14 0 19 -2 13 -5z m-2515 -194 c1 -22 7 -49 13 -60 6
-12 8 -49 5 -92 -10 -122 -18 -161 -38 -189 -11 -15 -22 -44 -25 -65 -5 -31
-4 -35 10 -30 15 5 16 -2 15 -61 -2 -37 1 -102 6 -146 6 -56 5 -76 -3 -72 -6
4 -11 35 -11 69 0 34 -5 78 -11 97 -20 62 -30 123 -36 211 -6 103 10 201 33
192 15 -6 20 12 5 21 -15 10 -1 140 17 154 9 6 16 12 17 12 1 0 2 -18 3 -41z
m4037 -129 c3 -5 -3 -10 -15 -10 -12 0 -18 5 -15 10 3 6 10 10 15 10 5 0 12
-4 15 -10z m-2042 -217 c-7 -2 -21 -2 -30 0 -10 3 -4 5 12 5 17 0 24 -2 18 -5z
m994 -79 c-3 -3 -12 -4 -19 -1 -8 3 -5 6 6 6 11 1 17 -2 13 -5z m36 -21 c-13
-2 -33 -2 -45 0 -13 2 -3 4 22 4 25 0 35 -2 23 -4z m-910 -140 c-7 -2 -19 -2
-25 0 -7 3 -2 5 12 5 14 0 19 -2 13 -5z m-2169 -279 c3 -8 2 -12 -4 -9 -6 3
-10 10 -10 16 0 14 7 11 14 -7z m2221 -23 c-3 -6 -14 -10 -23 -10 -15 1 -15 2
1 6 9 2 17 9 17 15 0 6 3 9 6 5 3 -3 3 -10 -1 -16z m68 -78 c-7 -2 -19 -2 -25
0 -7 3 -2 5 12 5 14 0 19 -2 13 -5z m-3 -21 c0 -11 -38 -42 -53 -42 -7 0 -25
6 -39 12 l-26 13 26 12 c31 13 92 17 92 5z m1010 -32 c0 -5 -4 -10 -10 -10 -5
0 -10 5 -10 10 0 6 5 10 10 10 6 0 10 -4 10 -10z m-1050 -125 c0 -10 -10 -15
-26 -15 -22 0 -25 2 -14 15 7 8 19 15 26 15 8 0 14 -7 14 -15z m-15 -85 c-3
-5 -12 -7 -20 -3 -21 7 -19 13 6 13 11 0 18 -4 14 -10z m214 -46 c10 -9 -45
-3 -59 6 -11 7 -5 8 20 4 19 -4 37 -8 39 -10z m-1156 -91 c-7 -2 -19 -2 -25 0
-7 3 -2 5 12 5 14 0 19 -2 13 -5z m2040 0 c-7 -2 -19 -2 -25 0 -7 3 -2 5 12 5
14 0 19 -2 13 -5z m-1880 -10 c-7 -2 -19 -2 -25 0 -7 3 -2 5 12 5 14 0 19 -2
13 -5z m-120 -30 c-7 -2 -19 -2 -25 0 -7 3 -2 5 12 5 14 0 19 -2 13 -5z m1094
-139 c-3 -3 -12 -4 -19 -1 -8 3 -5 6 6 6 11 1 17 -2 13 -5z m-20 -40 c-3 -3
-12 -4 -19 -1 -8 3 -5 6 6 6 11 1 17 -2 13 -5z m0 -20 c-3 -3 -12 -4 -19 -1
-8 3 -5 6 6 6 11 1 17 -2 13 -5z m111 -11 c-16 -2 -40 -2 -55 0 -16 2 -3 4 27
4 30 0 43 -2 28 -4z m640 0 c-10 -2 -28 -2 -40 0 -13 2 -5 4 17 4 22 1 32 -1
23 -4z m-775 -10 c-7 -2 -19 -2 -25 0 -7 3 -2 5 12 5 14 0 19 -2 13 -5z m130
-10 c-18 -2 -48 -2 -65 0 -18 2 -4 4 32 4 36 0 50 -2 33 -4z m615 -20 c-21 -2
-55 -2 -75 0 -21 2 -4 4 37 4 41 0 58 -2 38 -4z m-509 -29 c2 -2 -16 -5 -40
-6 l-44 -1 45 -7 c40 -6 35 -7 -40 -10 -47 -2 -67 -5 -45 -7 207 -16 212 -17
165 -23 -42 -6 -39 -7 38 -14 45 -5 81 -10 80 -11 -2 -2 -57 -5 -123 -8 -66
-3 -109 -2 -95 2 24 7 24 7 -9 14 -18 4 -48 8 -65 9 -24 1 -21 2 14 7 44 6 44
7 -30 15 l-75 9 60 11 60 12 -50 11 c-45 10 -40 11 50 6 55 -3 102 -7 104 -9z
m464 9 c-13 -2 -33 -2 -45 0 -13 2 -3 4 22 4 25 0 35 -2 23 -4z m0 -20 c-13
-2 -33 -2 -45 0 -13 2 -3 4 22 4 25 0 35 -2 23 -4z m64 1 c-3 -3 -12 -4 -19
-1 -8 3 -5 6 6 6 11 1 17 -2 13 -5z m6 -21 c-7 -2 -21 -2 -30 0 -10 3 -4 5 12
5 17 0 24 -2 18 -5z m-630 -50 c-13 -2 -33 -2 -45 0 -13 2 -3 4 22 4 25 0 35
-2 23 -4z m96 -29 c2 -2 -16 -5 -40 -6 l-44 -1 45 -7 45 -7 -45 -3 -45 -3 45
-6 c28 -4 44 -11 43 -18 -2 -9 15 -13 60 -14 59 -2 58 -2 -28 -10 -49 -5 -97
-7 -105 -5 -8 2 5 5 30 6 l45 3 -45 6 c-36 5 -45 10 -45 26 0 11 -8 23 -20 27
-18 5 -17 6 5 8 l25 2 -25 8 c-16 5 -2 6 35 3 33 -3 62 -7 64 -9z m144 9 c-13
-2 -33 -2 -45 0 -13 2 -3 4 22 4 25 0 35 -2 23 -4z m0 -20 c-13 -2 -33 -2 -45
0 -13 2 -3 4 22 4 25 0 35 -2 23 -4z m14 -19 c-3 -3 -12 -4 -19 -1 -8 3 -5 6
6 6 11 1 17 -2 13 -5z m342 -20 c2 -2 -22 -5 -55 -6 l-59 -1 65 -7 65 -7 -60
-3 -60 -3 60 -7 60 -7 -67 -1 c-37 -1 -70 3 -73 8 -4 7 -13 6 -27 -1 -13 -7
-23 -8 -27 -1 -3 5 -14 11 -24 13 -29 6 -20 24 15 30 32 6 179 0 187 -7z
m-422 0 c-3 -3 -12 -4 -19 -1 -8 3 -5 6 6 6 11 1 17 -2 13 -5z m103 -34 c-21
-7 -18 -8 20 -11 40 -2 41 -3 12 -6 -19 -3 -41 -2 -49 1 -20 8 -6 26 20 25 20
-1 20 -2 -3 -9z m57 4 c-3 -3 -12 -4 -19 -1 -8 3 -5 6 6 6 11 1 17 -2 13 -5z
m-164 -11 c-7 -2 -21 -2 -30 0 -10 3 -4 5 12 5 17 0 24 -2 18 -5z m-160 -10
c-7 -2 -21 -2 -30 0 -10 3 -4 5 12 5 17 0 24 -2 18 -5z m507 -5 l75 -2 -90 -6
-90 -6 80 -2 c97 -2 91 -20 -11 -31 -60 -7 -63 -9 -23 -10 32 -1 51 -7 64 -21
18 -19 17 -20 -2 -20 -27 0 -50 -44 -34 -64 11 -13 6 -15 -31 -19 l-43 -4 48
-1 c44 -2 48 -4 45 -24 -3 -20 -9 -23 -53 -24 l-50 -2 50 8 50 7 -45 3 -45 3
45 7 c39 6 36 7 -26 6 -62 -1 -70 -3 -66 -18 2 -10 -2 -19 -9 -20 -8 0 9 -4
36 -8 l50 -7 -50 -2 c-27 -1 -56 -5 -63 -10 -8 -5 8 -7 40 -5 45 2 48 2 18 -5
l-35 -8 47 -2 c26 0 58 3 72 9 21 7 26 6 26 -5 0 -8 -5 -15 -11 -15 -6 0 -9
-7 -5 -15 5 -13 -9 -14 -97 -10 -56 3 -97 3 -92 1 6 -3 59 -8 118 -11 60 -4
106 -9 104 -11 -2 -3 -61 -1 -131 2 -70 4 -122 11 -115 15 8 5 1 11 -22 18
-28 9 -29 10 -6 7 16 -2 25 0 20 4 -14 13 -102 18 -106 6 -2 -6 -9 -1 -15 10
-11 21 -10 22 50 23 33 0 63 2 65 4 2 3 -29 8 -69 12 l-73 8 63 12 c35 6 85
11 110 10 l47 -3 -40 8 -40 7 45 3 c38 3 41 4 15 8 l-30 5 30 7 c28 7 27 8
-12 9 -29 1 -42 -3 -40 -11 3 -16 -60 -26 -119 -17 -46 6 -45 7 31 9 l80 4
-75 6 -75 6 60 3 c48 2 55 5 35 12 -20 6 -16 8 22 6 25 -1 44 1 41 6 -2 4 -23
8 -46 9 l-42 1 45 7 45 7 -45 3 -45 3 45 7 45 7 -40 2 c-40 1 -89 20 -55 21
13 0 13 1 0 11 -13 9 -13 10 0 6 8 -2 14 -10 13 -16 -2 -7 16 -11 50 -11 37 0
48 3 37 10 -11 7 -4 10 26 10 25 0 47 6 54 15 11 13 5 15 -41 17 l-54 1 45 7
45 6 -40 5 -40 6 47 1 c26 1 50 7 54 13 4 7 21 9 43 5 20 -3 70 -7 111 -8z
m-387 -5 c-7 -2 -19 -2 -25 0 -7 3 -2 5 12 5 14 0 19 -2 13 -5z m-120 -10 c-7
-2 -21 -2 -30 0 -10 3 -4 5 12 5 17 0 24 -2 18 -5z m86 -49 c8 -7 -73 -2 -104
6 -19 5 -6 6 35 3 36 -3 67 -7 69 -9z m224 9 c-13 -2 -33 -2 -45 0 -13 2 -3 4
22 4 25 0 35 -2 23 -4z m254 -39 c-3 -3 -12 -4 -19 -1 -8 3 -5 6 6 6 11 1 17
-2 13 -5z m30 -20 c-3 -3 -12 -4 -19 -1 -8 3 -5 6 6 6 11 1 17 -2 13 -5z m-70
-10 c-3 -3 -12 -4 -19 -1 -8 3 -5 6 6 6 11 1 17 -2 13 -5z m23 -48 c0 -11 -19
-15 -25 -6 -3 5 1 10 9 10 9 0 16 -2 16 -4z m-397 -43 c-13 -2 -35 -2 -50 0
-16 2 -5 4 22 4 28 0 40 -2 28 -4z m-2013 -24 c0 -11 -4 -18 -10 -14 -5 3 -7
12 -3 20 7 21 13 19 13 -6z m1947 5 c-3 -3 -12 -4 -19 -1 -8 3 -5 6 6 6 11 1
17 -2 13 -5z m2933 -19 c0 -9 -6 -12 -15 -9 -8 4 -15 10 -15 15 0 5 7 9 15 9
8 0 15 -7 15 -15z m-4850 -5 c0 -5 -4 -10 -10 -10 -5 0 -10 5 -10 10 0 6 5 10
10 10 6 0 10 -4 10 -10z m1930 0 c0 -5 -7 -7 -15 -4 -8 4 -15 8 -15 10 0 2 7
4 15 4 8 0 15 -4 15 -10z m-26 -185 c-4 -10 1 -14 18 -13 12 1 37 1 53 -1 26
-2 28 -3 10 -11 -14 -6 -15 -9 -4 -9 8 -1 20 4 25 9 7 7 28 8 55 4 39 -7 41
-9 19 -15 -19 -5 -14 -7 23 -8 29 -1 46 -5 42 -11 -3 -5 -4 -10 -1 -10 2 0 13
-3 23 -6 15 -5 15 -4 3 5 -12 8 -6 11 26 11 25 0 47 -6 54 -15 14 -17 41 -20
56 -6 5 5 29 11 54 14 30 4 38 3 25 -3 l-20 -9 20 -1 20 -1 -20 -9 c-11 -5
-15 -9 -8 -9 17 -1 4 -31 -13 -31 -8 0 -14 -4 -14 -9 0 -5 -12 -12 -27 -16
-19 -4 -23 -9 -14 -14 15 -9 -100 -21 -194 -20 -34 0 -61 -4 -63 -10 -2 -6
-10 -11 -18 -11 -8 0 -14 -4 -14 -10 0 -5 -7 -10 -15 -10 -7 0 -18 -7 -22 -15
-5 -8 -23 -15 -40 -17 -17 -1 -29 -6 -27 -10 3 -4 -2 -8 -11 -8 -15 0 -15 -1
-1 -16 19 -19 21 -45 3 -38 -7 2 -26 -2 -42 -10 -26 -14 -31 -14 -38 -1 -4 8
-18 15 -29 15 -21 0 -21 1 -4 13 17 12 16 16 -18 51 -30 33 -33 40 -21 52 7 8
22 14 32 15 13 1 11 3 -7 9 -25 8 -25 8 5 10 30 2 30 2 5 10 -22 7 -21 8 13 9
23 1 36 -3 32 -9 -3 -5 1 -10 9 -10 9 0 16 -5 16 -11 0 -6 -9 -8 -22 -4 -18 5
-20 4 -8 -4 28 -20 50 -13 50 15 0 27 -21 54 -42 54 -10 0 -9 -3 2 -10 11 -7
1 -9 -35 -9 -27 1 -41 4 -30 7 17 4 14 7 -15 17 l-35 13 45 8 c44 8 44 8 15
15 -28 6 -28 7 -5 9 l25 2 -25 8 -25 8 28 1 c16 1 26 5 22 11 -3 6 4 10 17 10
18 0 20 2 8 10 -11 7 -11 10 -2 10 7 0 11 4 8 9 -7 11 10 19 46 20 20 1 26 -3
22 -14z m-111 -2 c-7 -2 -19 -2 -25 0 -7 3 -2 5 12 5 14 0 19 -2 13 -5z m414
-29 c-3 -3 -12 -4 -19 -1 -8 3 -5 6 6 6 11 1 17 -2 13 -5z m73 -14 c13 -9 13
-10 0 -10 -8 0 -22 5 -30 10 -13 9 -13 10 0 10 8 0 22 -5 30 -10z m-330 -234
c0 -2 -7 -9 -15 -16 -12 -10 -15 -10 -15 4 0 9 7 16 15 16 8 0 15 -2 15 -4z
m-140 -60 c0 -3 -4 -8 -10 -11 -5 -3 -10 -1 -10 4 0 6 5 11 10 11 6 0 10 -2
10 -4z m507 -2 c-3 -3 -12 -4 -19 -1 -8 3 -5 6 6 6 11 1 17 -2 13 -5z m2118
-33 c3 -5 1 -12 -4 -15 -5 -3 -11 1 -15 9 -6 16 9 21 19 6z"/>
<path d="M5660 5439 c0 -5 5 -7 10 -4 6 3 10 8 10 11 0 2 -4 4 -10 4 -5 0 -10
-5 -10 -11z"/>
<path d="M4994 4069 c-3 -6 -1 -16 5 -22 8 -8 11 -5 11 11 0 24 -5 28 -16 11z"/>
<path d="M5120 3473 c0 -26 1 -26 14 -8 14 20 12 35 -5 35 -5 0 -9 -12 -9 -27z"/>
<path d="M5160 3000 c0 -12 44 -24 62 -17 8 3 5 6 -7 8 -11 1 0 5 25 9 45 7
44 7 -17 8 -36 1 -63 -2 -63 -8z"/>
<path d="M5110 2980 c-13 -8 -12 -10 3 -10 9 0 25 -5 36 -11 13 -9 23 -9 37
-1 18 11 18 11 -3 12 -12 0 -25 5 -28 10 -8 13 -26 13 -45 0z"/>
<path d="M4753 2963 c9 -2 23 -2 30 0 6 3 -1 5 -18 5 -16 0 -22 -2 -12 -5z"/>
<path d="M4828 2963 c18 -2 45 -2 60 0 15 2 0 4 -33 4 -33 0 -45 -2 -27 -4z"/>
<path d="M5080 2950 c44 -7 44 -7 10 -10 -33 -3 -33 -3 -7 -7 16 -3 36 -2 45
2 27 10 -6 25 -53 23 l-40 -1 45 -7z"/>
<path d="M4758 2943 c23 -2 61 -2 85 0 23 2 4 4 -43 4 -47 0 -66 -2 -42 -4z"/>
<path d="M4753 2923 c20 -2 54 -2 75 0 20 2 3 4 -38 4 -41 0 -58 -2 -37 -4z"/>
<path d="M4758 2903 c7 -3 16 -2 19 1 4 3 -2 6 -13 5 -11 0 -14 -3 -6 -6z"/>
<path d="M4728 2843 c6 -2 18 -2 25 0 6 3 1 5 -13 5 -14 0 -19 -2 -12 -5z"/>
<path d="M4573 2783 c9 -2 23 -2 30 0 6 3 -1 5 -18 5 -16 0 -22 -2 -12 -5z"/>
<path d="M4488 2683 c6 -2 18 -2 25 0 6 3 1 5 -13 5 -14 0 -19 -2 -12 -5z"/>
<path d="M4338 2563 c12 -2 30 -2 40 0 9 3 -1 5 -23 4 -22 0 -30 -2 -17 -4z"/>
<path d="M4348 2543 c6 -2 18 -2 25 0 6 3 1 5 -13 5 -14 0 -19 -2 -12 -5z"/>
<path d="M4520 2460 l-45 -7 43 -1 c24 -1 41 -5 39 -9 -6 -9 204 -6 242 3 87
19 -162 32 -279 14z m223 -7 c-35 -2 -91 -2 -125 0 -35 2 -7 3 62 3 69 0 97
-1 63 -3z"/>
<path d="M4913 2453 c9 -2 25 -2 35 0 9 3 1 5 -18 5 -19 0 -27 -2 -17 -5z"/>
<path d="M4488 2433 c7 -3 16 -2 19 1 4 3 -2 6 -13 5 -11 0 -14 -3 -6 -6z"/>
<path d="M4973 2433 c9 -2 25 -2 35 0 9 3 1 5 -18 5 -19 0 -27 -2 -17 -5z"/>
<path d="M4583 2403 c15 -2 39 -2 55 0 15 2 2 4 -28 4 -30 0 -43 -2 -27 -4z"/>
<path d="M4713 2383 c9 -2 25 -2 35 0 9 3 1 5 -18 5 -19 0 -27 -2 -17 -5z"/>
<path d="M4433 2373 c9 -2 23 -2 30 0 6 3 -1 5 -18 5 -16 0 -22 -2 -12 -5z"/>
<path d="M4418 2353 c12 -2 32 -2 45 0 12 2 2 4 -23 4 -25 0 -35 -2 -22 -4z"/>
<path d="M5308 2323 c12 -2 30 -2 40 0 9 3 -1 5 -23 4 -22 0 -30 -2 -17 -4z"/>
<path d="M4418 2263 c12 -2 32 -2 45 0 12 2 2 4 -23 4 -25 0 -35 -2 -22 -4z"/>
<path d="M4703 2178 c-2 -5 -16 -8 -31 -8 -37 0 -60 -15 -37 -24 26 -10 77 -7
70 4 -4 6 7 10 27 9 30 -1 31 -2 8 -8 -15 -5 33 -11 123 -15 82 -4 151 -5 154
-2 4 3 -8 6 -25 6 -18 0 -32 5 -32 11 0 7 11 9 30 6 17 -4 30 -2 30 3 0 6 -15
11 -32 12 -29 1 -27 2 12 8 27 5 -22 7 -123 6 -93 0 -171 -4 -174 -8z"/>
<path d="M5045 2170 c-8 -13 5 -13 25 0 13 8 13 10 -2 10 -9 0 -20 -4 -23 -10z"/>
<path d="M5183 2163 c9 -2 23 -2 30 0 6 3 -1 5 -18 5 -16 0 -22 -2 -12 -5z"/>
<path d="M5113 2153 c9 -2 25 -2 35 0 9 3 1 5 -18 5 -19 0 -27 -2 -17 -5z"/>
<path d="M5142 2143 c-59 -8 -22 -23 51 -21 60 1 64 2 27 7 l-45 5 50 6 50 7
-50 0 c-27 0 -65 -2 -83 -4z"/>
<path d="M4660 2110 c0 -5 9 -10 21 -10 11 0 17 5 14 10 -3 6 -13 10 -21 10
-8 0 -14 -4 -14 -10z"/>
<path d="M5298 2113 c12 -2 32 -2 45 0 12 2 2 4 -23 4 -25 0 -35 -2 -22 -4z"/>
<path d="M5418 2103 c7 -3 16 -2 19 1 4 3 -2 6 -13 5 -11 0 -14 -3 -6 -6z"/>
<path d="M4678 2083 c7 -3 16 -2 19 1 4 3 -2 6 -13 5 -11 0 -14 -3 -6 -6z"/>
<path d="M4673 2063 c9 -2 25 -2 35 0 9 3 1 5 -18 5 -19 0 -27 -2 -17 -5z"/>
<path d="M4668 2043 c12 -2 32 -2 45 0 12 2 2 4 -23 4 -25 0 -35 -2 -22 -4z"/>
<path d="M5658 1963 c7 -3 16 -2 19 1 4 3 -2 6 -13 5 -11 0 -14 -3 -6 -6z"/>
<path d="M4638 1913 c7 -3 16 -2 19 1 4 3 -2 6 -13 5 -11 0 -14 -3 -6 -6z"/>
<path d="M4639 1817 c5 -5 24 -7 42 -5 33 3 33 4 -8 8 -23 3 -39 2 -34 -3z"/>
<path d="M5035 1820 c-3 -5 -23 -11 -43 -11 -35 -1 -35 -2 10 -9 26 -5 60 -5
75 0 28 8 28 8 -7 10 l-35 3 35 7 35 7 -32 2 c-17 0 -35 -3 -38 -9z"/>
<path d="M5158 1823 c7 -3 16 -2 19 1 4 3 -2 6 -13 5 -11 0 -14 -3 -6 -6z"/>
<path d="M4875 1810 c-7 -12 2 -12 30 0 19 8 19 9 -2 9 -12 1 -25 -3 -28 -9z"/>
<path d="M5148 1803 c7 -3 16 -2 19 1 4 3 -2 6 -13 5 -11 0 -14 -3 -6 -6z"/>
<path d="M5448 1803 c7 -3 16 -2 19 1 4 3 -2 6 -13 5 -11 0 -14 -3 -6 -6z"/>
<path d="M5168 1783 c7 -3 16 -2 19 1 4 3 -2 6 -13 5 -11 0 -14 -3 -6 -6z"/>
<path d="M4954 1772 c3 -6 -2 -13 -11 -15 -16 -4 -16 -5 -1 -6 21 -1 32 15 17
25 -7 4 -9 3 -5 -4z"/>
<path d="M4695 1765 c25 -9 107 -12 94 -4 -8 5 -34 8 -59 8 -25 0 -40 -2 -35
-4z"/>
<path d="M4798 1573 c7 -3 16 -2 19 1 4 3 -2 6 -13 5 -11 0 -14 -3 -6 -6z"/>
<path d="M4858 1563 c7 -3 16 -2 19 1 4 3 -2 6 -13 5 -11 0 -14 -3 -6 -6z"/>
<path d="M5483 1553 c9 -2 23 -2 30 0 6 3 -1 5 -18 5 -16 0 -22 -2 -12 -5z"/>
<path d="M4858 1543 c6 -2 18 -2 25 0 6 3 1 5 -13 5 -14 0 -19 -2 -12 -5z"/>
<path d="M5473 1533 c9 -2 25 -2 35 0 9 3 1 5 -18 5 -19 0 -27 -2 -17 -5z"/>
<path d="M4595 1380 c-3 -5 1 -10 10 -10 9 0 13 5 10 10 -3 6 -8 10 -10 10 -2
0 -7 -4 -10 -10z"/>
<path d="M4723 1363 c9 -2 23 -2 30 0 6 3 -1 5 -18 5 -16 0 -22 -2 -12 -5z"/>
<path d="M4708 1343 c12 -2 30 -2 40 0 9 3 -1 5 -23 4 -22 0 -30 -2 -17 -4z"/>
<path d="M5418 1343 c7 -3 16 -2 19 1 4 3 -2 6 -13 5 -11 0 -14 -3 -6 -6z"/>
<path d="M5148 1333 c12 -2 30 -2 40 0 9 3 -1 5 -23 4 -22 0 -30 -2 -17 -4z"/>
<path d="M5403 1323 c9 -2 23 -2 30 0 6 3 -1 5 -18 5 -16 0 -22 -2 -12 -5z"/>
<path d="M5078 1313 c7 -3 16 -2 19 1 4 3 -2 6 -13 5 -11 0 -14 -3 -6 -6z"/>
<path d="M5121 1316 c2 -2 36 -6 74 -9 54 -4 61 -4 30 3 -40 9 -112 13 -104 6z"/>
<path d="M5039 1297 c4 -4 39 -7 77 -5 l69 3 -77 5 c-42 3 -73 1 -69 -3z"/>
<path d="M5378 1303 c12 -2 32 -2 45 0 12 2 2 4 -23 4 -25 0 -35 -2 -22 -4z"/>
<path d="M5258 1283 c18 -2 45 -2 60 0 15 2 0 4 -33 4 -33 0 -45 -2 -27 -4z"/>
<path d="M5108 1273 c7 -3 16 -2 19 1 4 3 -2 6 -13 5 -11 0 -14 -3 -6 -6z"/>
<path d="M5175 1270 c17 -4 41 -8 55 -8 22 0 22 1 -5 8 -16 4 -41 8 -55 8 -22
0 -22 -1 5 -8z"/>
<path d="M4863 1203 c9 -2 23 -2 30 0 6 3 -1 5 -18 5 -16 0 -22 -2 -12 -5z"/>
<path d="M5213 1203 c15 -2 37 -2 50 0 12 2 0 4 -28 4 -27 0 -38 -2 -22 -4z"/>
<path d="M5148 1183 c12 -2 30 -2 40 0 9 3 -1 5 -23 4 -22 0 -30 -2 -17 -4z"/>
<path d="M4838 1163 c6 -2 18 -2 25 0 6 3 1 5 -13 5 -14 0 -19 -2 -12 -5z"/>
<path d="M4938 1153 c7 -3 16 -2 19 1 4 3 -2 6 -13 5 -11 0 -14 -3 -6 -6z"/>
<path d="M5153 1143 c9 -2 25 -2 35 0 9 3 1 5 -18 5 -19 0 -27 -2 -17 -5z"/>
<path d="M5058 1083 c12 -2 32 -2 45 0 12 2 2 4 -23 4 -25 0 -35 -2 -22 -4z"/>
<path d="M5218 1053 c12 -2 30 -2 40 0 9 3 -1 5 -23 4 -22 0 -30 -2 -17 -4z"/>
<path d="M4818 953 c12 -2 32 -2 45 0 12 2 2 4 -23 4 -25 0 -35 -2 -22 -4z"/>
<path d="M5218 863 c12 -2 32 -2 45 0 12 2 2 4 -23 4 -25 0 -35 -2 -22 -4z"/>
<path d="M5233 823 c9 -2 25 -2 35 0 9 3 1 5 -18 5 -19 0 -27 -2 -17 -5z"/>
<path d="M5138 783 c12 -2 30 -2 40 0 9 3 -1 5 -23 4 -22 0 -30 -2 -17 -4z"/>
<path d="M5178 763 c7 -3 16 -2 19 1 4 3 -2 6 -13 5 -11 0 -14 -3 -6 -6z"/>
<path d="M5133 743 c9 -2 25 -2 35 0 9 3 1 5 -18 5 -19 0 -27 -2 -17 -5z"/>
<path d="M4993 663 c15 -2 37 -2 50 0 12 2 0 4 -28 4 -27 0 -38 -2 -22 -4z"/>
<path d="M5085 660 c4 -6 11 -8 16 -5 14 9 11 15 -7 15 -8 0 -12 -5 -9 -10z"/>
<path d="M4983 623 c15 -2 39 -2 55 0 15 2 2 4 -28 4 -30 0 -43 -2 -27 -4z"/>
<path d="M5081 596 c7 -8 139 -10 146 -3 3 4 -29 7 -72 7 -43 0 -76 -2 -74 -4z"/>
<path d="M4988 423 c7 -3 16 -2 19 1 4 3 -2 6 -13 5 -11 0 -14 -3 -6 -6z"/>
<path d="M5048 393 c6 -2 18 -2 25 0 6 3 1 5 -13 5 -14 0 -19 -2 -12 -5z"/>
<path d="M4745 229 c-11 -17 1 -21 15 -4 8 9 8 15 2 15 -6 0 -14 -5 -17 -11z"/>
<path d="M330 7280 c-11 -7 -5 -10 23 -10 23 0 36 4 32 10 -8 13 -35 13 -55 0z"/>
<path d="M400 7280 c0 -5 6 -10 14 -10 8 0 18 5 21 10 3 6 -3 10 -14 10 -12 0
-21 -4 -21 -10z"/>
<path d="M5830 5749 c0 -12 24 -22 45 -17 12 2 7 7 -14 15 -18 6 -31 7 -31 2z"/>
<path d="M5837 4781 c-4 -17 -3 -21 5 -13 5 5 8 16 6 23 -3 8 -7 3 -11 -10z"/>
<path d="M5892 4640 c0 -19 2 -27 5 -17 2 9 2 25 0 35 -3 9 -5 1 -5 -18z"/>
<path d="M5820 4599 c0 -5 4 -9 9 -9 5 0 13 -10 17 -22 4 -13 11 -26 17 -30 8
-4 7 -15 -1 -34 -13 -27 -8 -45 7 -28 17 18 21 72 6 78 -8 3 -12 11 -10 18 3
7 -6 18 -20 25 -14 6 -25 7 -25 2z"/>
<path d="M343 3663 c-15 -3 -23 -12 -23 -24 0 -10 -4 -19 -9 -19 -5 0 -20 -19
-33 -42 -20 -37 -22 -50 -16 -96 7 -48 25 -82 43 -82 6 0 23 -13 56 -42 10
-10 24 -18 29 -18 6 0 10 -4 10 -9 0 -5 8 -11 19 -14 10 -2 21 -17 25 -32 9
-36 27 -53 49 -47 12 3 23 -2 29 -12 5 -9 18 -16 28 -16 10 0 23 -6 27 -13 14
-22 61 -48 68 -37 3 6 21 10 40 10 22 0 43 9 61 25 21 19 30 22 40 14 11 -9
14 -7 14 8 0 14 14 24 51 37 39 15 53 25 61 48 6 15 19 33 29 39 31 16 28 27
-40 110 -13 17 -21 32 -18 36 12 12 -15 43 -37 43 -48 0 -86 13 -91 31 -4 12
-18 19 -43 21 -25 2 -36 7 -34 17 2 10 -5 12 -25 9 -15 -3 -41 -2 -58 2 -29 7
-29 8 10 10 36 2 32 3 -30 15 -38 7 -96 14 -127 14 -31 1 -60 6 -63 11 -3 6
-9 9 -13 9 -4 -1 -17 -4 -29 -6z"/>
<path d="M6180 3650 c0 -5 5 -10 11 -10 5 0 7 5 4 10 -3 6 -8 10 -11 10 -2 0
-4 -4 -4 -10z"/>
<path d="M6270 3605 c14 -8 32 -14 40 -14 8 0 0 6 -19 14 -42 19 -54 19 -21 0z"/>
<path d="M6410 3553 c0 -4 15 -14 33 -22 17 -8 34 -18 37 -22 3 -4 23 -10 45
-13 22 -3 33 -3 25 0 -39 17 -126 57 -132 61 -5 2 -8 1 -8 -4z"/>
<path d="M2488 3453 c6 -2 18 -2 25 0 6 3 1 5 -13 5 -14 0 -19 -2 -12 -5z"/>
<path d="M2438 3443 c6 -2 18 -2 25 0 6 3 1 5 -13 5 -14 0 -19 -2 -12 -5z"/>
<path d="M6711 3428 c-13 -4 -19 -13 -15 -23 7 -17 31 -20 36 -4 2 7 17 0 36
-16 36 -30 38 -28 18 20 -15 35 -31 40 -75 23z"/>
<path d="M8928 3200 c-3 -11 -330 -44 -360 -36 -17 4 -77 -3 -208 -23 -36 -6
-149 -11 -252 -11 -151 -1 -193 2 -217 14 -16 9 -51 16 -77 16 -26 0 -73 5
-104 12 -32 6 -65 8 -76 3 -10 -4 -45 -7 -76 -6 -75 4 -118 -6 -118 -27 0 -12
-3 -13 -12 -4 -7 7 -26 12 -43 11 -26 0 -27 -2 -10 -9 15 -6 8 -9 -27 -9 -27
-1 -48 -5 -48 -10 0 -5 -16 -12 -35 -15 -19 -4 -35 -11 -35 -15 0 -9 -75 -28
-143 -38 -21 -3 -41 -11 -44 -19 -3 -9 -11 -10 -30 -3 -31 11 -33 11 -33 -1 0
-5 8 -10 18 -11 10 0 12 -3 5 -6 -10 -3 -9 -13 3 -41 28 -68 98 -293 109 -352
4 -19 22 -84 41 -145 25 -79 36 -136 40 -204 4 -61 12 -108 23 -131 10 -19 28
-69 40 -110 13 -41 29 -93 36 -115 8 -22 17 -67 20 -100 8 -73 43 -216 56
-229 5 -6 9 -18 9 -27 0 -27 36 -100 45 -91 5 4 5 1 1 -5 -4 -7 -2 -21 3 -30
8 -14 11 -15 11 -3 1 8 6 4 12 -10 9 -21 12 -22 15 -7 9 35 28 17 24 -23 -1
-11 2 -10 13 4 10 13 31 19 68 22 29 2 79 6 110 10 37 4 68 2 87 -5 15 -7 72
-13 126 -14 57 -1 100 -6 102 -12 2 -6 21 -9 42 -7 21 2 49 -1 61 -8 12 -6 52
-14 88 -16 36 -3 71 -9 77 -13 5 -5 28 -12 50 -15 55 -9 183 -26 222 -30 18
-1 36 -6 40 -11 5 -4 -1 -5 -12 -1 -14 5 -17 4 -9 -4 6 -6 52 -12 102 -15 50
-2 99 -8 109 -13 10 -5 56 -12 102 -14 47 -3 86 -9 88 -14 2 -5 22 -9 46 -7
39 2 40 1 12 -7 -22 -6 -14 -7 30 -4 33 3 69 8 80 10 16 4 17 3 5 -5 -11 -8
-5 -11 28 -11 23 0 42 -4 42 -10 0 -6 33 -10 80 -10 64 0 80 -3 80 -15 0 -12
17 -15 95 -15 l95 0 0 1005 c0 887 -2 1004 -15 999 -8 -4 -12 -11 -8 -16 4 -7
-7 -8 -33 -3 -59 11 -168 14 -175 4 -8 -14 -192 -14 -197 0 -2 6 -9 11 -17 11
-7 0 -18 7 -25 15 -7 9 -29 15 -51 15 -21 0 -41 5 -44 10 -8 13 -52 13 -57 0z
m-1890 -245 c-3 -3 -9 2 -12 12 -6 14 -5 15 5 6 7 -7 10 -15 7 -18z m479
-1527 c-3 -8 -6 -5 -6 6 -1 11 2 17 5 13 3 -3 4 -12 1 -19z"/>
<path d="M2230 3083 c0 -7 -11 -29 -25 -49 -23 -34 -33 -74 -19 -74 16 0 79
66 76 79 -5 21 -32 58 -32 44z"/>
<path d="M6353 2910 c-1 -11 2 -18 8 -15 11 7 12 35 1 35 -4 0 -8 -9 -9 -20z"/>
<path d="M1977 2852 c-23 -26 -22 -58 3 -65 18 -5 20 0 20 39 0 24 -2 44 -3
44 -2 0 -11 -8 -20 -18z"/>
<path d="M1957 2750 c-3 -11 -1 -20 4 -20 5 0 9 -16 9 -35 0 -19 5 -35 10 -35
15 0 12 53 -4 84 -13 25 -14 25 -19 6z"/>
<path d="M1980 2760 c0 -5 5 -10 10 -10 6 0 10 5 10 10 0 6 -4 10 -10 10 -5 0
-10 -4 -10 -10z"/>
<path d="M50 1989 l0 -501 23 5 c12 3 57 9 99 13 43 4 76 10 73 14 -2 4 6 5
18 3 12 -2 49 0 82 5 l60 10 -64 1 c-101 2 -68 8 82 15 119 6 137 5 137 -9 0
-8 9 -15 20 -15 22 0 27 15 8 23 -18 8 34 10 215 11 86 1 157 -3 157 -7 0 -5
12 -6 28 -2 15 4 47 9 72 10 139 9 340 17 445 19 189 4 183 3 184 29 3 100 13
203 20 211 5 6 11 29 14 51 3 22 13 85 22 140 20 133 45 341 45 388 0 26 -4
37 -15 37 -8 0 -14 -3 -14 -7 5 -30 -4 -43 -35 -51 -41 -12 -125 5 -153 31
-22 19 -53 23 -53 6 0 -14 -390 -5 -399 9 -12 19 -110 45 -149 39 -22 -4 -53
-1 -77 8 -46 16 -135 20 -135 5 0 -14 -38 -12 -43 3 -3 9 -11 8 -34 -5 -16 -9
-75 -22 -136 -29 -76 -9 -107 -16 -107 -26 0 -7 -9 -13 -20 -13 -12 0 -17 5
-14 14 6 15 -12 21 -106 31 -30 3 -68 9 -85 12 l-30 6 25 8 c15 4 -11 7 -67 8
l-93 1 0 -501z m187 -445 c-3 -3 -12 -4 -19 -1 -8 3 -5 6 6 6 11 1 17 -2 13
-5z"/>
<path d="M1777 2476 c-4 -10 -5 -21 -2 -24 9 -9 17 6 13 25 -3 17 -4 17 -11
-1z"/>
<path d="M1655 2420 c3 -5 10 -10 16 -10 5 0 9 5 9 10 0 6 -7 10 -16 10 -8 0
-12 -4 -9 -10z"/>
<path d="M2010 2394 c0 -8 5 -12 10 -9 6 3 10 10 10 16 0 5 -4 9 -10 9 -5 0
-10 -7 -10 -16z"/>
<path d="M3673 2343 c15 -2 39 -2 55 0 15 2 2 4 -28 4 -30 0 -43 -2 -27 -4z"/>
<path d="M3653 2323 c20 -2 54 -2 75 0 20 2 3 4 -38 4 -41 0 -58 -2 -37 -4z"/>
<path d="M3628 2303 c17 -2 47 -2 65 0 17 2 3 4 -33 4 -36 0 -50 -2 -32 -4z"/>
<path d="M3623 2283 c15 -2 39 -2 55 0 15 2 2 4 -28 4 -30 0 -43 -2 -27 -4z"/>
<path d="M3608 2263 c6 -2 18 -2 25 0 6 3 1 5 -13 5 -14 0 -19 -2 -12 -5z"/>
<path d="M465 1540 c3 -5 8 -10 11 -10 2 0 4 5 4 10 0 6 -5 10 -11 10 -5 0 -7
-4 -4 -10z"/>
<path d="M3708 1513 c12 -2 30 -2 40 0 9 3 -1 5 -23 4 -22 0 -30 -2 -17 -4z"/>
<path d="M3568 1483 c7 -3 16 -2 19 1 4 3 -2 6 -13 5 -11 0 -14 -3 -6 -6z"/>
<path d="M3425 1460 c-13 -6 -15 -9 -5 -9 8 0 22 4 30 9 18 12 2 12 -25 0z"/>
<path d="M3363 1433 c15 -2 39 -2 55 0 15 2 2 4 -28 4 -30 0 -43 -2 -27 -4z"/>
<path d="M3358 1413 c18 -2 45 -2 60 0 15 2 0 4 -33 4 -33 0 -45 -2 -27 -4z"/>
<path d="M3180 1400 l-25 -8 25 -2 c21 -2 19 -4 -10 -10 -34 -7 -34 -7 -5 -8
17 0 41 4 55 8 l25 8 -25 3 c-14 1 2 5 35 9 l60 7 -55 0 c-30 1 -66 -3 -80 -7z"/>
<path d="M3148 1353 c18 -2 45 -2 60 0 15 2 0 4 -33 4 -33 0 -45 -2 -27 -4z"/>
<path d="M3455 1349 c50 -4 117 -7 150 -6 53 0 50 1 -25 8 -47 4 -114 7 -150
6 -60 0 -58 -1 25 -8z"/>
<path d="M3305 1341 l60 -7 -55 -6 c-37 -4 -28 -4 30 -3 63 2 75 1 45 -5 -22
-4 -89 -10 -150 -13 -65 -2 -87 -2 -55 3 l55 7 -60 2 c-46 2 -55 5 -40 12 17
8 17 9 -5 4 -14 -2 -34 -5 -45 -6 -14 -1 -10 -4 10 -9 29 -7 29 -8 -10 -10
l-40 -3 45 -8 c25 -5 97 -7 160 -4 86 3 101 1 60 -5 -30 -4 -77 -9 -105 -11
-33 -1 -40 -3 -20 -6 17 -2 81 0 143 4 61 5 112 5 112 1 0 -5 -37 -9 -82 -10
l-83 -1 60 -7 c49 -5 53 -7 20 -8 -22 -1 -65 -5 -95 -9 l-55 -8 40 -6 c34 -5
29 -6 -25 -7 -46 0 -58 2 -40 8 21 7 18 8 -20 10 l-45 3 40 7 c27 5 32 8 15 9
-14 1 -43 3 -65 6 -35 4 -36 3 -10 -4 29 -8 29 -9 5 -11 l-25 -2 25 -9 c20 -6
16 -8 -22 -6 -25 1 -44 -2 -41 -7 3 -4 28 -6 54 -4 29 3 49 1 49 -5 0 -6 33
-8 85 -5 47 2 80 1 74 -2 -6 -4 -9 -11 -7 -16 1 -5 -19 -10 -47 -10 l-50 -2
45 8 c43 7 41 7 -25 9 -38 0 -86 3 -105 5 -19 2 -26 1 -15 -1 11 -3 22 -8 25
-12 3 -4 45 -12 93 -18 72 -9 91 -15 103 -32 13 -18 24 -21 72 -19 l57 1 -50
7 -50 7 45 2 c25 1 54 6 65 11 13 5 -2 7 -40 4 -55 -3 -54 -2 20 10 62 9 73
13 50 18 -26 4 -24 5 15 8 42 2 43 3 15 10 l-30 8 32 1 c30 1 59 21 31 21 -21
0 42 30 66 31 20 0 20 1 1 8 -19 8 -18 9 5 13 15 3 2 6 -30 8 -52 2 -53 3 -20
11 33 7 33 7 -12 6 -25 -1 -44 1 -41 6 2 4 25 8 51 8 l47 2 -58 7 c-32 4 -116
10 -185 12 -70 3 -100 2 -67 -1z m183 -18 c-10 -2 -26 -2 -35 0 -10 3 -2 5 17
5 19 0 27 -2 18 -5z m-20 -20 c-15 -2 -42 -2 -60 0 -18 2 -6 4 27 4 33 0 48
-2 33 -4z m30 -20 c-10 -2 -26 -2 -35 0 -10 3 -2 5 17 5 19 0 27 -2 18 -5z
m-155 -50 c-13 -2 -33 -2 -45 0 -13 2 -3 4 22 4 25 0 35 -2 23 -4z"/>
<path d="M3178 1333 c12 -2 30 -2 40 0 9 3 -1 5 -23 4 -22 0 -30 -2 -17 -4z"/>
<path d="M3218 1253 c12 -2 32 -2 45 0 12 2 2 4 -23 4 -25 0 -35 -2 -22 -4z"/>
<path d="M3013 1182 c-18 -2 -33 -8 -33 -14 0 -5 -21 -29 -47 -51 -113 -100
-116 -103 -107 -118 5 -8 7 -23 5 -33 -2 -17 -1 -17 11 -5 8 8 20 23 27 34 11
18 12 18 7 1 -5 -15 -4 -17 8 -7 7 6 20 9 28 6 8 -3 23 3 33 15 13 15 32 20
69 21 28 1 39 4 25 6 -24 4 -25 6 -16 27 8 16 17 22 31 18 14 -4 18 -1 13 10
-3 9 0 21 6 27 6 6 7 11 1 11 -5 0 -10 9 -11 20 -1 15 4 20 24 20 15 0 23 3
19 7 -8 8 -44 10 -93 5z"/>
<path d="M3265 1151 c19 -8 18 -9 -5 -13 -24 -5 -24 -5 3 -7 32 -1 33 22 1 26
-18 3 -18 2 1 -6z"/>
<path d="M1780 1135 c-10 -12 -9 -16 5 -21 17 -7 38 13 29 28 -8 12 -20 10
-34 -7z"/>
<path d="M3088 1143 c6 -2 18 -2 25 0 6 3 1 5 -13 5 -14 0 -19 -2 -12 -5z"/>
<path d="M3110 1120 c8 -5 20 -10 25 -10 6 0 3 5 -5 10 -8 5 -19 10 -25 10 -5
0 -3 -5 5 -10z"/>
<path d="M1741 1106 c-13 -15 -5 -26 20 -26 26 0 31 14 9 28 -14 8 -21 8 -29
-2z"/>
<path d="M3263 1113 c9 -2 25 -2 35 0 9 3 1 5 -18 5 -19 0 -27 -2 -17 -5z"/>
<path d="M3288 1093 c6 -2 18 -2 25 0 6 3 1 5 -13 5 -14 0 -19 -2 -12 -5z"/>
<path d="M3288 1073 c6 -2 18 -2 25 0 6 3 1 5 -13 5 -14 0 -19 -2 -12 -5z"/>
<path d="M2973 1013 c9 -2 25 -2 35 0 9 3 1 5 -18 5 -19 0 -27 -2 -17 -5z"/>
<path d="M3233 993 c9 -2 25 -2 35 0 9 3 1 5 -18 5 -19 0 -27 -2 -17 -5z"/>
<path d="M3217 966 c-4 -11 4 -16 31 -19 28 -3 22 -4 -23 -7 -50 -2 -55 -4
-30 -10 26 -7 27 -8 6 -9 l-24 -1 21 -19 c26 -21 29 -36 6 -27 -8 3 -13 2 -9
-3 3 -5 2 -11 -2 -14 -5 -2 -2 -2 5 0 8 1 23 -4 35 -12 20 -14 20 -15 1 -22
-15 -6 -11 -9 21 -15 22 -4 56 -7 75 -7 29 0 32 2 15 10 -19 8 -19 9 3 6 42
-4 17 -22 -31 -22 -37 0 -47 -3 -45 -15 4 -22 71 -24 112 -5 35 17 82 13 70
-6 -3 -5 -10 -7 -15 -4 -5 4 -9 2 -9 -3 0 -6 19 -8 43 -5 23 2 69 7 102 11
l60 6 -45 7 -45 6 55 3 55 3 -45 7 c-39 6 -40 7 -12 8 29 2 48 22 20 22 -7 0
-2 9 12 20 22 16 23 20 8 25 -9 4 -21 4 -27 1 -5 -3 -12 0 -14 6 -4 10 -6 10
-6 1 -1 -18 -29 -16 -47 2 -14 13 -13 15 3 16 30 3 -78 17 -132 18 -68 2 -90
16 -44 30 l34 10 -30 -1 c-65 -2 -91 2 -75 12 11 7 2 10 -31 10 -32 0 -49 -5
-52 -14z m50 -42 c-3 -3 -12 -4 -19 -1 -8 3 -5 6 6 6 11 1 17 -2 13 -5z m40
-150 c-3 -3 -12 -4 -19 -1 -8 3 -5 6 6 6 11 1 17 -2 13 -5z m46 -1 c-7 -2 -19
-2 -25 0 -7 3 -2 5 12 5 14 0 19 -2 13 -5z"/>
<path d="M3368 973 c6 -2 18 -2 25 0 6 3 1 5 -13 5 -14 0 -19 -2 -12 -5z"/>
<path d="M1825 942 c-40 -8 -52 -29 -47 -81 2 -27 -1 -57 -7 -67 -6 -11 -11
-13 -11 -6 0 6 -5 12 -11 12 -6 0 -9 -7 -5 -15 3 -8 1 -15 -4 -15 -6 0 -10 -9
-10 -20 0 -11 5 -20 12 -20 6 0 -1 -13 -16 -29 -16 -17 -25 -34 -21 -41 5 -8
10 -9 14 -1 8 12 51 3 51 -11 0 -5 -11 -24 -25 -42 -14 -18 -25 -37 -25 -42 0
-5 -7 -20 -17 -33 -9 -13 -17 -36 -18 -51 -1 -14 -14 -45 -29 -68 -14 -23 -26
-51 -26 -62 0 -12 -4 -29 -9 -39 -12 -22 -3 -61 14 -61 7 0 16 11 19 24 9 36
109 67 145 44 21 -13 56 -4 46 12 -6 9 20 15 57 12 19 -2 27 15 38 83 9 51 -7
248 -19 241 -4 -3 -17 4 -30 14 -24 17 -24 18 -4 29 19 10 20 15 11 53 -6 24
-14 48 -18 53 -4 6 -11 36 -14 67 -8 62 -11 67 -41 60z m55 -327 c0 -8 -9 -15
-20 -15 -22 0 -27 15 -7 23 21 9 27 7 27 -8z m-46 -99 l16 -25 -30 11 c-17 5
-30 16 -30 24 0 22 26 16 44 -10z"/>
<path d="M3373 933 c9 -2 25 -2 35 0 9 3 1 5 -18 5 -19 0 -27 -2 -17 -5z"/>
<path d="M3220 780 c0 -5 5 -10 11 -10 5 0 7 5 4 10 -3 6 -8 10 -11 10 -2 0
-4 -4 -4 -10z"/>
<path d="M2968 753 c7 -3 16 -2 19 1 4 3 -2 6 -13 5 -11 0 -14 -3 -6 -6z"/>
<path d="M3533 753 c9 -2 23 -2 30 0 6 3 -1 5 -18 5 -16 0 -22 -2 -12 -5z"/>
<path d="M3298 743 c12 -2 32 -2 45 0 12 2 2 4 -23 4 -25 0 -35 -2 -22 -4z"/>
<path d="M3548 733 c7 -3 16 -2 19 1 4 3 -2 6 -13 5 -11 0 -14 -3 -6 -6z"/>
<path d="M3270 720 c-11 -7 -11 -10 -2 -10 7 0 11 -4 7 -9 -3 -5 0 -13 6 -17
8 -4 9 -3 5 4 -4 7 -1 12 6 12 10 0 9 3 -1 9 -11 7 -6 11 20 14 32 4 33 4 4 5
-16 1 -37 -3 -45 -8z"/>
<path d="M3468 713 c7 -3 16 -2 19 1 4 3 -2 6 -13 5 -11 0 -14 -3 -6 -6z"/>
<path d="M3288 613 c7 -3 16 -2 19 1 4 3 -2 6 -13 5 -11 0 -14 -3 -6 -6z"/>
<path d="M2960 554 c-21 -25 -1 -68 33 -71 32 -2 32 -4 10 47 -20 44 -25 47
-43 24z"/>
<path d="M3040 450 c0 -5 5 -10 11 -10 5 0 7 5 4 10 -3 6 -8 10 -11 10 -2 0
-4 -4 -4 -10z"/>
<path d="M3065 370 c3 -5 8 -10 11 -10 2 0 4 5 4 10 0 6 -5 10 -11 10 -5 0 -7
-4 -4 -10z"/>
<path d="M1881 323 c0 -5 4 -17 9 -28 8 -18 9 -17 9 8 1 15 -3 27 -9 27 -5 0
-10 -3 -9 -7z"/>
<path d="M3090 320 c0 -5 7 -10 15 -10 8 0 15 5 15 10 0 6 -7 10 -15 10 -8 0
-15 -4 -15 -10z"/>
<path d="M2888 313 c7 -3 16 -2 19 1 4 3 -2 6 -13 5 -11 0 -14 -3 -6 -6z"/>
<path d="M3111 283 c2 -27 15 -42 29 -33 10 7 11 10 3 10 -7 0 -13 7 -13 15 0
8 -4 15 -10 15 -5 0 -10 -3 -9 -7z"/>
<path d="M1652 185 c-18 -20 -37 -33 -43 -30 -5 4 -9 3 -8 -2 1 -4 1 -19 0
-33 -1 -20 -3 -22 -11 -10 -7 12 -10 11 -16 -5 -4 -11 -12 -24 -18 -28 -6 -4
0 -7 15 -5 14 1 33 -3 41 -10 12 -9 69 -12 229 -10 141 2 207 6 194 12 -11 5
-22 12 -25 15 -12 14 -73 41 -91 41 -11 0 -17 5 -14 10 3 6 -2 10 -11 10 -22
0 -94 31 -94 41 0 9 -75 39 -98 39 -9 0 -32 -16 -50 -35z"/>
</g>
</svg>
